<?xml version="1.0" standalone="no"?>
<!DOCTYPE svg PUBLIC "-//W3C//DTD SVG 1.1//EN" "http://www.w3.org/Graphics/SVG/1.1/DTD/svg11.dtd" >
<svg>
<metadata>
Created by FontForge 20110222 at Mon Nov 25 06:42:25 2013
 By Orthosie Webhosting
_null_name_substitute_
</metadata>
<defs>
<font id="barliconsRegular" horiz-adv-x="1536" >
  <font-face 
    font-family="barliconsRegular"
    font-weight="400"
    font-stretch="normal"
    units-per-em="1792"
    panose-1="0 0 5 0 0 0 0 0 0 0"
    ascent="1536"
    descent="-256"
    bbox="-153 -349 2029 1694"
    underline-thickness="90"
    underline-position="-89"
    unicode-range="U+0020-F1F9"
  />
<missing-glyph horiz-adv-x="896" 
d="M784 0h-672v1536h672v-1536zM224 1424v-1312h448v1312h-448z" />
    <glyph glyph-name=".notdef" horiz-adv-x="896" 
d="M784 0h-672v1536h672v-1536zM224 1424v-1312h448v1312h-448z" />
    <glyph glyph-name=".null" horiz-adv-x="0" 
 />
    <glyph glyph-name="nonmarkingreturn" horiz-adv-x="597" 
 />
    <glyph glyph-name="space" unicode=" " horiz-adv-x="448" 
 />
    <glyph glyph-name="asterisk" unicode="*" horiz-adv-x="1664" 
d="M1129 640l378 -219q26 -16 34 -45.5t-7 -56.5l-75 -129q-16 -26 -45.5 -34t-56.5 7l-376 219v-436q0 -31 -22 -52.5t-53 -21.5h-149q-31 0 -52.5 21.5t-21.5 52.5v436l-377 -219q-26 -15 -56 -7t-45 34l-75 129q-16 27 -7.5 56.5t34.5 45.5l378 219l-378 219
q-26 15 -34.5 45t7.5 56l75 129q15 27 45 35t56 -8l377 -218v435q0 31 21.5 53t52.5 22h149q31 0 53 -22t22 -53v-435l376 218q27 16 56.5 8t45.5 -35l75 -129q15 -26 7 -56t-34 -45z" />
    <glyph glyph-name="plus" unicode="+" horiz-adv-x="1408" 
d="M846 846h491q29 0 50 -20.5t21 -50.5v-142q0 -29 -21 -50t-50 -21h-491v-491q0 -29 -21 -50t-50 -21h-142q-29 0 -50 21t-21 50v491h-491q-29 0 -50 21t-21 50v142q0 30 21 50.5t50 20.5h491v491q0 30 21 50.5t50 20.5h142q29 0 50 -20.5t21 -50.5v-491z" />
    <glyph glyph-name="dieresis" unicode="&#xa8;" horiz-adv-x="1792" 
 />
    <glyph glyph-name="copyright" unicode="&#xa9;" horiz-adv-x="1792" 
 />
    <glyph glyph-name="registered" unicode="&#xae;" horiz-adv-x="1792" 
 />
    <glyph glyph-name="acute" unicode="&#xb4;" horiz-adv-x="1792" 
 />
    <glyph glyph-name="paragraph" unicode="&#xb6;" horiz-adv-x="1166" 
d="M390 1403h723q22 0 37.5 -15.5t15.5 -37.5v-60q-1 -22 -16 -37.5t-37 -15.5h-136v-1171q0 -29 -21 -50t-50 -21h-82q-29 0 -50 21t-21 50v1171h-127v-1171q0 -29 -21 -50t-50 -21h-82q-29 0 -50 21t-21 50v523h-5q-165 0 -281 116.5t-116 280.5v20q0 162 112.5 277
t273.5 120h4z" />
    <glyph glyph-name="AE" unicode="&#xc6;" horiz-adv-x="1792" 
 />
    <glyph glyph-name="trademark" unicode="&#x2122;" horiz-adv-x="1792" 
 />
    <glyph glyph-name="minus" unicode="&#x2212;" horiz-adv-x="1408" 
d="M71 847h1266q29 0 50 -21t21 -50v-142q0 -30 -21 -50.5t-50 -20.5h-1266q-29 0 -50 20.5t-21 50.5v142q0 29 21 50t50 21z" />
    <glyph glyph-name="infinity" unicode="&#x221e;" horiz-adv-x="1792" 
 />
    <glyph glyph-name="notequal" unicode="&#x2260;" horiz-adv-x="1792" 
 />
    <glyph glyph-name="uni2601" unicode="&#x2601;" horiz-adv-x="1920" 
d="M1536 0h-1088q-185 0 -316.5 131.5t-131.5 316.5q0 132 71 241.5t187 163.5q-2 28 -2 43q0 212 150 362t362 150q158 0 286.5 -88t187.5 -230q70 62 166 62q106 0 181 -75t75 -181q0 -75 -41 -138q129 -30 213 -134.5t84 -239.5q0 -159 -112.5 -271.5t-271.5 -112.5z" />
    <glyph glyph-name="uni2602" unicode="&#x2602;" horiz-adv-x="1664" 
d="M896 1408v-98q-42 2 -64 2t-64 -2v98q0 26 19 45t45 19t45 -19t19 -45zM1664 681q0 -13 -9.5 -22.5t-22.5 -9.5q-11 0 -23 10q-49 46 -93 69t-102 23q-68 0 -128 -37t-103 -97q-7 -10 -17.5 -28t-14.5 -24q-11 -17 -28 -17q-18 0 -29 17q-4 6 -14.5 24t-17.5 28
q-43 60 -102.5 97t-127.5 37t-127.5 -37t-102.5 -97q-7 -10 -17.5 -28t-14.5 -24q-11 -17 -29 -17q-17 0 -28 17q-4 6 -14.5 24t-17.5 28q-43 60 -103 97t-128 37q-58 0 -102 -23t-93 -69q-12 -10 -23 -10q-13 0 -22.5 9.5t-9.5 22.5q0 5 1 7q45 183 172.5 319.5t298 204.5
t360.5 68q140 0 274.5 -40t246.5 -113.5t194.5 -187t115.5 -251.5q1 -2 1 -7zM896 708v-580q0 -104 -76 -180t-180 -76t-180 76t-76 180q0 26 19 45t45 19t45 -19t19 -45q0 -50 39 -89t89 -39t89 39t39 89v580q33 11 64 11t64 -11z" />
    <glyph glyph-name="uni2709" unicode="&#x2709;" horiz-adv-x="1792" 
d="M1792 1120v-1088q0 -66 -47 -113t-113 -47h-1472q-66 0 -113 47t-47 113v1088q0 66 47 113t113 47h1472q66 0 113 -47t47 -113zM895 384h2q20 0 43 9t50.5 27.5t44.5 31.5t46 37.5t35 29.5q208 165 401 317q54 43 100.5 115.5t46.5 131.5v11v13.5t-0.5 13t-3 12.5t-5.5 9
t-9 7.5t-14 2.5h-1472q-13 0 -22.5 -9.5t-9.5 -22.5q0 -168 147 -284q193 -152 401 -317q6 -5 35 -29.5t46 -37.5t44.5 -31.5t50.5 -27.5t43 -9zM160 0h1472q13 0 22.5 9.5t9.5 22.5v768q-32 -36 -69 -66q-268 -206 -426 -338q-51 -43 -83 -67t-86.5 -48.5t-102.5 -24.5h-2
q-48 0 -102.5 24.5t-86.5 48.5t-83 67q-158 132 -426 338q-37 30 -69 66v-768q0 -13 9.5 -22.5t22.5 -9.5z" />
    <glyph glyph-name="uni270F" unicode="&#x270f;" 
d="M1293 1299l135 -134q37 -39 37 -91q0 -53 -37 -90l-126 -126l-316 316l126 125q36 38 90 38q53 0 91 -38zM161 352l1 -1l760 759l316 -316l-922 -922h-316v317l161 161v2zM199 -41h82l72 72l3 102l-102 -4l4 101l-99 -3l-75 -76v-76z" />
    <glyph glyph-name="glass" unicode="&#xf000;" horiz-adv-x="1792" 
d="M192 1408h1408q23 0 43 -4t38 -17.5t18 -36.5q0 -35 -43 -78l-632 -632v-768h320q26 0 45 -19t19 -45t-19 -45t-45 -19h-896q-26 0 -45 19t-19 45t19 45t45 19h320v768l-632 632q-43 43 -43 78q0 23 18 36.5t38 17.5t43 4z" />
    <glyph glyph-name="music" unicode="&#xf001;" 
d="M1536 1312v-1120q0 -50 -34 -89t-86 -60.5t-103.5 -32t-96.5 -10.5t-96.5 10.5t-103.5 32t-86 60.5t-34 89t34 89t86 60.5t103.5 32t96.5 10.5q105 0 192 -39v537l-768 -237v-709q0 -50 -34 -89t-86 -60.5t-103.5 -32t-96.5 -10.5t-96.5 10.5t-103.5 32t-86 60.5t-34 89
t34 89t86 60.5t103.5 32t96.5 10.5q105 0 192 -39v967q0 31 19 56.5t49 35.5l832 256q12 4 28 4q40 0 68 -28t28 -68z" />
    <glyph glyph-name="search" unicode="&#xf002;" horiz-adv-x="1664" 
d="M1284 305l343 -343q37 -37 37 -90q0 -52 -38 -90t-90 -38q-54 0 -90 38l-343 342q-179 -124 -399 -124q-143 0 -273.5 55.5t-225 150t-150 225t-55.5 273.5t55.5 273.5t150 225t225 150t273.5 55.5t273.5 -55.5t225 -150t150 -225t55.5 -273.5q0 -220 -124 -399z
M1152 704q0 185 -131.5 316.5t-316.5 131.5t-316.5 -131.5t-131.5 -316.5t131.5 -316.5t316.5 -131.5t316.5 131.5t131.5 316.5z" />
    <glyph glyph-name="heart" unicode="&#xf004;" horiz-adv-x="1792" 
d="M1563 490l-623 -600q-18 -18 -44 -18t-44 18l-624 602q-10 8 -27.5 26t-55.5 65.5t-68 97.5t-53.5 121t-23.5 138q0 220 127 344t351 124q62 0 126.5 -21.5t120 -58t95.5 -68.5t76 -68q36 36 76 68t95.5 68.5t120 58t126.5 21.5q224 0 351 -124t127 -344
q0 -221 -229 -450z" />
    <glyph glyph-name="star" unicode="&#xf005;" horiz-adv-x="1664" 
d="M1045 924h586q25 0 32 -23q8 -23 -12 -37l-475 -345l182 -558q7 -22 -12 -37q-9 -6 -20 -6q-12 0 -19 6l-475 345l-474 -345q-20 -13 -40 0q-19 15 -12 37l182 558l-475 345q-19 14 -12 37q8 23 32 23h586l181 558q8 23 32 23t32 -23z" />
    <glyph glyph-name="star_empty" unicode="&#xf006;" horiz-adv-x="1664" 
d="M1106 1008l502 -73q56 -9 56 -46q0 -22 -26 -48l-363 -354l86 -500q1 -7 1 -20q0 -50 -41 -50q-19 0 -40 12l-449 236l-449 -236q-22 -12 -40 -12q-21 0 -31.5 14.5t-10.5 35.5q0 6 2 20l86 500l-364 354q-25 27 -25 48q0 37 56 46l502 73l225 455q19 41 49 41t49 -41z
M1137 532l306 297l-422 62l-189 382l-189 -382l-422 -62l306 -297l-73 -421l378 199l377 -199z" />
    <glyph glyph-name="user" unicode="&#xf007;" horiz-adv-x="1408" 
d="M12 -28v43v2q0 54 34.5 96t90.5 67.5t110.5 42.5t112 31t77.5 23q76 32 108 160q3 35 -31 74h-1l-1 1q-71 75 -121 195q-3 -3 -11 -5q-22 -5 -44.5 20.5t-32.5 66.5t-1 74t31 39q-13 66 -13 128q0 101 29.5 176t83.5 118t121 63.5t150 20.5t150 -20.5t121 -63.5
t83.5 -118t29.5 -176q0 -53 -13 -128q22 -5 31 -38.5t-1 -74.5t-32.5 -66.5t-44.5 -20.5q-8 2 -11 5q-50 -120 -121 -195l-2 -2q-39 -39 -29 -81q32 -121 105 -152q20 -9 78 -23.5t112 -31.5t110 -42.5t90.5 -67.5t34.5 -95v-45q0 -29 -20.5 -50t-50.5 -21h-1241
q-29 0 -50 21t-21 50z" />
    <glyph glyph-name="film" unicode="&#xf008;" horiz-adv-x="1920" 
d="M181 1501h1558q29 0 50 -20.5t21 -50.5v-1522q0 -29 -21 -50t-50 -21h-1558q-29 0 -50 21t-21 50v1522q0 30 21 50.5t50 20.5zM200 1394v-108q0 -7 5 -12t12 -5h159q18 0 18 17v108q0 7 -5.5 12t-12.5 5h-159q-7 0 -12 -5t-5 -12zM484 1394v-655q0 -7 5 -12t12 -5h916
q18 0 18 17v655q0 7 -5.5 12t-12.5 5h-916q-7 0 -12 -5t-5 -12zM1526 1394v-108q0 -7 5 -12t12 -5h159q18 0 18 17v108q0 7 -5.5 12t-12.5 5h-159q-7 0 -12 -5t-5 -12zM200 1171v-108q0 -7 5 -12t12 -5h159q7 0 12.5 5t5.5 12v108q0 7 -5 12.5t-13 5.5h-159q-7 0 -12 -5.5
t-5 -12.5zM1526 1171v-108q0 -7 5 -12t12 -5h159q7 0 12.5 5t5.5 12v108q0 7 -5 12.5t-13 5.5h-159q-7 0 -12 -5.5t-5 -12.5zM200 948v-107q0 -7 5 -12.5t12 -5.5h159q8 0 13 5.5t5 12.5v107q0 8 -5 13t-13 5h-159q-7 0 -12 -5.5t-5 -12.5zM1526 948v-107q0 -7 5 -12.5
t12 -5.5h159q8 0 13 5.5t5 12.5v107q0 8 -5 13t-13 5h-159q-7 0 -12 -5.5t-5 -12.5zM200 725v-107q0 -7 5 -12.5t12 -5.5h159q8 0 13 5t5 13v107q0 7 -5 12.5t-13 5.5h-159q-7 0 -12 -5.5t-5 -12.5zM1526 725v-107q0 -7 5 -12.5t12 -5.5h159q8 0 13 5t5 13v107q0 7 -5 12.5
t-13 5.5h-159q-7 0 -12 -5.5t-5 -12.5zM484 604v-655q0 -7 5 -12t12 -5h916q7 0 12.5 5t5.5 12v655q0 8 -5.5 13t-12.5 5h-916q-7 0 -12 -5.5t-5 -12.5zM200 503v-108q0 -7 5 -12.5t12 -5.5h159q8 0 13 5.5t5 12.5v108q0 7 -5.5 12t-12.5 5h-159q-7 0 -12 -5t-5 -12z
M1526 503v-108q0 -7 5 -12.5t12 -5.5h159q8 0 13 5.5t5 12.5v108q0 7 -5.5 12t-12.5 5h-159q-7 0 -12 -5t-5 -12zM200 280v-108q0 -7 5 -12t12 -5h159q18 0 18 17v108q0 7 -5.5 12t-12.5 5h-159q-7 0 -12 -5t-5 -12zM1526 280v-108q0 -7 5 -12t12 -5h159q18 0 18 17v108
q0 7 -5.5 12t-12.5 5h-159q-7 0 -12 -5t-5 -12zM200 57v-108q0 -7 5 -12t12 -5h159q7 0 12.5 5t5.5 12v108q0 7 -5 12.5t-13 5.5h-159q-7 0 -12 -5.5t-5 -12.5zM1526 57v-108q0 -7 5 -12t12 -5h159q7 0 12.5 5t5.5 12v108q0 7 -5 12.5t-13 5.5h-159q-7 0 -12 -5.5t-5 -12.5z
" />
    <glyph glyph-name="th_large" unicode="&#xf009;" horiz-adv-x="1664" 
d="M768 1280v-384q0 -52 -38 -90t-90 -38h-512q-52 0 -90 38t-38 90v384q0 52 38 90t90 38h512q52 0 90 -38t38 -90zM1664 1280v-384q0 -52 -38 -90t-90 -38h-512q-52 0 -90 38t-38 90v384q0 52 38 90t90 38h512q52 0 90 -38t38 -90zM768 512v-384q0 -52 -38 -90t-90 -38
h-512q-52 0 -90 38t-38 90v384q0 52 38 90t90 38h512q52 0 90 -38t38 -90zM1664 512v-384q0 -52 -38 -90t-90 -38h-512q-52 0 -90 38t-38 90v384q0 52 38 90t90 38h512q52 0 90 -38t38 -90z" />
    <glyph glyph-name="th" unicode="&#xf00a;" horiz-adv-x="1792" 
d="M512 1312v-192q0 -40 -28 -68t-68 -28h-320q-40 0 -68 28t-28 68v192q0 40 28 68t68 28h320q40 0 68 -28t28 -68zM1152 1312v-192q0 -40 -28 -68t-68 -28h-320q-40 0 -68 28t-28 68v192q0 40 28 68t68 28h320q40 0 68 -28t28 -68zM1792 1312v-192q0 -40 -28 -68t-68 -28
h-320q-40 0 -68 28t-28 68v192q0 40 28 68t68 28h320q40 0 68 -28t28 -68zM512 800v-192q0 -40 -28 -68t-68 -28h-320q-40 0 -68 28t-28 68v192q0 40 28 68t68 28h320q40 0 68 -28t28 -68zM1152 800v-192q0 -40 -28 -68t-68 -28h-320q-40 0 -68 28t-28 68v192q0 40 28 68
t68 28h320q40 0 68 -28t28 -68zM1792 800v-192q0 -40 -28 -68t-68 -28h-320q-40 0 -68 28t-28 68v192q0 40 28 68t68 28h320q40 0 68 -28t28 -68zM512 288v-192q0 -40 -28 -68t-68 -28h-320q-40 0 -68 28t-28 68v192q0 40 28 68t68 28h320q40 0 68 -28t28 -68zM1152 288
v-192q0 -40 -28 -68t-68 -28h-320q-40 0 -68 28t-28 68v192q0 40 28 68t68 28h320q40 0 68 -28t28 -68zM1792 288v-192q0 -40 -28 -68t-68 -28h-320q-40 0 -68 28t-28 68v192q0 40 28 68t68 28h320q40 0 68 -28t28 -68z" />
    <glyph glyph-name="th_list" unicode="&#xf00b;" horiz-adv-x="1792" 
d="M512 1312v-192q0 -40 -28 -68t-68 -28h-320q-40 0 -68 28t-28 68v192q0 40 28 68t68 28h320q40 0 68 -28t28 -68zM1792 1312v-192q0 -40 -28 -68t-68 -28h-960q-40 0 -68 28t-28 68v192q0 40 28 68t68 28h960q40 0 68 -28t28 -68zM512 800v-192q0 -40 -28 -68t-68 -28
h-320q-40 0 -68 28t-28 68v192q0 40 28 68t68 28h320q40 0 68 -28t28 -68zM1792 800v-192q0 -40 -28 -68t-68 -28h-960q-40 0 -68 28t-28 68v192q0 40 28 68t68 28h960q40 0 68 -28t28 -68zM512 288v-192q0 -40 -28 -68t-68 -28h-320q-40 0 -68 28t-28 68v192q0 40 28 68
t68 28h320q40 0 68 -28t28 -68zM1792 288v-192q0 -40 -28 -68t-68 -28h-960q-40 0 -68 28t-28 68v192q0 40 28 68t68 28h960q40 0 68 -28t28 -68z" />
    <glyph glyph-name="ok" unicode="&#xf00c;" horiz-adv-x="1792" 
d="M1524 1157l101 -101q21 -21 21 -50t-21 -50l-859 -859q-3 -3 -11 -9q-21 -14 -45 -11.5t-42 20.5l-37 36l-105 105l-357 358q-21 21 -21 50t21 50l100 101q21 20 50.5 20t50.5 -20l347 -348l707 708q21 20 50.5 20t49.5 -20z" />
    <glyph glyph-name="remove" unicode="&#xf00d;" horiz-adv-x="1408" 
d="M704 776l347 347q21 21 50.5 21t50.5 -21l100 -101q21 -20 21 -49.5t-21 -50.5l-347 -347l347 -347q21 -21 21 -50.5t-21 -50.5l-100 -100q-21 -21 -50.5 -21t-50.5 21l-347 347l-347 -347q-21 -21 -50.5 -21t-50.5 21l-100 100q-21 21 -21 50.5t21 50.5l347 347
l-347 347q-21 21 -21 50.5t21 49.5l100 101q21 21 50.5 21t50.5 -21z" />
    <glyph glyph-name="zoom_in" unicode="&#xf00e;" horiz-adv-x="1664" 
d="M1284 305l343 -343q37 -37 37 -90t-37.5 -90.5t-90.5 -37.5q-54 0 -90 38l-343 342q-179 -124 -399 -124q-143 0 -273.5 55.5t-225 150t-150 225t-55.5 273.5t55.5 273.5t150 225t225 150t273.5 55.5t273.5 -55.5t225 -150t150 -225t55.5 -273.5q0 -220 -124 -399z
M1152 704q0 185 -131.5 316.5t-316.5 131.5t-316.5 -131.5t-131.5 -316.5t131.5 -316.5t316.5 -131.5t316.5 131.5t131.5 316.5zM1024 736v-64q0 -13 -9.5 -22.5t-22.5 -9.5h-224v-224q0 -13 -9.5 -22.5t-22.5 -9.5h-64q-13 0 -22.5 9.5t-9.5 22.5v224h-224q-13 0 -22.5 9.5
t-9.5 22.5v64q0 13 9.5 22.5t22.5 9.5h224v224q0 13 9.5 22.5t22.5 9.5h64q13 0 22.5 -9.5t9.5 -22.5v-224h224q13 0 22.5 -9.5t9.5 -22.5z" />
    <glyph glyph-name="zoom_out" unicode="&#xf010;" horiz-adv-x="1664" 
d="M1284 305l343 -343q37 -37 37 -90t-37.5 -90.5t-90.5 -37.5q-54 0 -90 38l-343 342q-179 -124 -399 -124q-143 0 -273.5 55.5t-225 150t-150 225t-55.5 273.5t55.5 273.5t150 225t225 150t273.5 55.5t273.5 -55.5t225 -150t150 -225t55.5 -273.5q0 -220 -124 -399z
M1152 704q0 185 -131.5 316.5t-316.5 131.5t-316.5 -131.5t-131.5 -316.5t131.5 -316.5t316.5 -131.5t316.5 131.5t131.5 316.5zM1024 736v-64q0 -13 -9.5 -22.5t-22.5 -9.5h-576q-13 0 -22.5 9.5t-9.5 22.5v64q0 13 9.5 22.5t22.5 9.5h576q13 0 22.5 -9.5t9.5 -22.5z" />
    <glyph glyph-name="off" unicode="&#xf011;" 
d="M896 1408v-640q0 -52 -38 -90t-90 -38t-90 38t-38 90v640q0 52 38 90t90 38t90 -38t38 -90zM1536 640q0 -156 -61 -298t-164 -245t-245 -164t-298 -61t-298 61t-245 164t-164 245t-61 298q0 182 80.5 343t226.5 270q43 32 95.5 25t83.5 -50q32 -42 24.5 -94.5
t-49.5 -84.5q-98 -74 -151.5 -181t-53.5 -228q0 -104 40.5 -198.5t109.5 -163.5t163.5 -109.5t198.5 -40.5t198.5 40.5t163.5 109.5t109.5 163.5t40.5 198.5q0 121 -53.5 228t-151.5 181q-42 32 -49.5 84.5t24.5 94.5q31 43 84 50t95 -25q146 -109 226.5 -270t80.5 -343z
" />
    <glyph glyph-name="signal" unicode="&#xf012;" horiz-adv-x="1792" 
d="M1792 1376v-1472q0 -14 -9 -23t-23 -9h-192q-14 0 -23 9t-9 23v1472q0 14 9 23t23 9h192q14 0 23 -9t9 -23zM1408 864v-960q0 -14 -9 -23t-23 -9h-192q-14 0 -23 9t-9 23v960q0 14 9 23t23 9h192q14 0 23 -9t9 -23zM1024 480v-576q0 -14 -9 -23t-23 -9h-192q-14 0 -23 9
t-9 23v576q0 14 9 23t23 9h192q14 0 23 -9t9 -23zM640 224v-320q0 -14 -9 -23t-23 -9h-192q-14 0 -23 9t-9 23v320q0 14 9 23t23 9h192q14 0 23 -9t9 -23zM256 96v-192q0 -14 -9 -23t-23 -9h-192q-14 0 -23 9t-9 23v192q0 14 9 23t23 9h192q14 0 23 -9t9 -23z" />
    <glyph glyph-name="cog" unicode="&#xf013;" 
d="M1536 749v-222q0 -12 -8 -23t-20 -13l-185 -28q-19 -54 -39 -91q35 -50 107 -138q10 -12 10 -25t-9 -23q-27 -37 -99 -108t-94 -71q-12 0 -26 9l-138 108q-44 -23 -91 -38q-16 -136 -29 -186q-7 -28 -36 -28h-222q-14 0 -24.5 8.5t-11.5 21.5l-28 184q-49 16 -90 37
l-141 -107q-10 -9 -25 -9q-14 0 -25 11q-126 114 -165 168q-7 10 -7 23q0 12 8 23q15 21 51 66.5t54 70.5q-27 50 -41 99l-183 27q-13 2 -21 12.5t-8 23.5v222q0 12 8 23t19 13l186 28q14 46 39 92q-40 57 -107 138q-10 12 -10 24q0 10 9 23q26 36 98.5 107.5t94.5 71.5
q13 0 26 -10l138 -107q44 23 91 38q16 136 29 186q7 28 36 28h222q14 0 24.5 -8.5t11.5 -21.5l28 -184q49 -16 90 -37l142 107q9 9 24 9q13 0 25 -10q129 -119 165 -170q7 -8 7 -22q0 -12 -8 -23q-15 -21 -51 -66.5t-54 -70.5q26 -50 41 -98l183 -28q13 -2 21 -12.5t8 -23.5
zM1024 640q0 106 -75 181t-181 75t-181 -75t-75 -181t75 -181t181 -75t181 75t75 181z" />
    <glyph glyph-name="trash" unicode="&#xf014;" horiz-adv-x="1408" 
d="M1408 1120v-64q0 -14 -9 -23t-23 -9h-96v-948q0 -83 -47 -143.5t-113 -60.5h-832q-66 0 -113 58.5t-47 141.5v952h-96q-14 0 -23 9t-9 23v64q0 14 9 23t23 9h309l70 167q15 37 54 63t79 26h320q40 0 79 -26t54 -63l70 -167h309q14 0 23 -9t9 -23zM480 1152h448l-48 117
q-7 9 -17 11h-317q-10 -2 -17 -11zM288 0h832q3 0 10.5 8.5t14.5 27t7 40.5v948h-896v-948q0 -22 7 -40.5t14.5 -27t10.5 -8.5zM512 800v-576q0 -14 -9 -23t-23 -9h-64q-14 0 -23 9t-9 23v576q0 14 9 23t23 9h64q14 0 23 -9t9 -23zM768 800v-576q0 -14 -9 -23t-23 -9h-64
q-14 0 -23 9t-9 23v576q0 14 9 23t23 9h64q14 0 23 -9t9 -23zM1024 800v-576q0 -14 -9 -23t-23 -9h-64q-14 0 -23 9t-9 23v576q0 14 9 23t23 9h64q14 0 23 -9t9 -23z" />
    <glyph glyph-name="home" unicode="&#xf015;" horiz-adv-x="1664" 
d="M1408 840l219 -182q10 -8 11 -21.5t-7 -23.5l-62 -74q-8 -9 -21 -11h-3q-13 0 -21 7l-692 577l-692 -577q-12 -8 -24 -7q-13 2 -21 11l-62 74q-8 10 -7 23.5t11 21.5l719 599q32 26 76 26t76 -26l244 -204v195q0 14 9 23t23 9h192q14 0 23 -9t9 -23v-408zM1408 544v-480
q0 -26 -19 -45t-45 -19h-384v384h-256v-384h-384q-26 0 -45 19t-19 45v480q0 1 0.5 3t0.5 3l575 474l575 -474q1 -2 1 -6z" />
    <glyph glyph-name="file" unicode="&#xf016;" horiz-adv-x="1280" 
d="M1280 768v-800q0 -40 -28 -68t-68 -28h-1088q-40 0 -68 28t-28 68v1344q0 40 28 68t68 28h544q40 0 88 -20t76 -48l408 -408q28 -28 48 -76t20 -88zM128 0h1024v768h-416q-40 0 -68 28t-28 68v416h-512v-1280zM768 896h299l-299 299v-299z" />
    <glyph glyph-name="time" unicode="&#xf017;" 
d="M1536 640q0 -209 -103 -385.5t-279.5 -279.5t-385.5 -103t-385.5 103t-279.5 279.5t-103 385.5t103 385.5t279.5 279.5t385.5 103t385.5 -103t279.5 -279.5t103 -385.5zM1280 640q0 104 -40.5 198.5t-109.5 163.5t-163.5 109.5t-198.5 40.5t-198.5 -40.5t-163.5 -109.5
t-109.5 -163.5t-40.5 -198.5t40.5 -198.5t109.5 -163.5t163.5 -109.5t198.5 -40.5t198.5 40.5t163.5 109.5t109.5 163.5t40.5 198.5zM1088 608v-64q0 -13 -9.5 -22.5t-22.5 -9.5h-384q-13 0 -22.5 9.5t-9.5 22.5v448q0 13 9.5 22.5t22.5 9.5h64q13 0 22.5 -9.5t9.5 -22.5
v-352h288q13 0 22.5 -9.5t9.5 -22.5z" />
    <glyph glyph-name="road" unicode="&#xf018;" horiz-adv-x="1920" 
d="M1427 1233l417 -1044q26 -62 26 -116q0 -73 -46 -73h-704q13 0 22 9.5t8 22.5l-20 256q-1 13 -11 22.5t-23 9.5h-272q-13 0 -23 -9.5t-11 -22.5l-20 -256q-1 -13 8 -22.5t22 -9.5h-704q-46 0 -46 73q0 54 26 116l417 1044q8 19 26 33t38 14h339q-13 0 -23 -9.5t-11 -22.5
l-15 -192q-1 -14 8 -23t22 -9h166q13 0 22 9t8 23l-15 192q-1 13 -11 22.5t-23 9.5h339q20 0 38 -14t26 -33zM838 512h244q12 0 21 8t8 20v4l-24 320q-1 13 -11 22.5t-23 9.5h-186q-13 0 -23 -9.5t-11 -22.5l-24 -320v-4q-1 -12 8 -20t21 -8z" />
    <glyph glyph-name="download_alt" unicode="&#xf019;" horiz-adv-x="1664" 
d="M1024 768h256q42 0 59 -39q17 -41 -14 -70l-448 -448q-18 -19 -45 -19t-45 19l-448 448q-31 29 -14 70q17 39 59 39h256v448q0 26 19 45t45 19h256q26 0 45 -19t19 -45v-448zM1440 512h192q14 0 23 -9t9 -23v-576q0 -14 -9 -23t-23 -9h-1600q-14 0 -23 9t-9 23v576
q0 14 9 23t23 9h192q14 0 23 -9t9 -23v-352h1152v352q0 14 9 23t23 9z" />
    <glyph glyph-name="download" unicode="&#xf01a;" 
d="M1536 640q0 -209 -103 -385.5t-279.5 -279.5t-385.5 -103t-385.5 103t-279.5 279.5t-103 385.5t103 385.5t279.5 279.5t385.5 103t385.5 -103t279.5 -279.5t103 -385.5zM1280 640q0 104 -40.5 198.5t-109.5 163.5t-163.5 109.5t-198.5 40.5t-198.5 -40.5t-163.5 -109.5
t-109.5 -163.5t-40.5 -198.5t40.5 -198.5t109.5 -163.5t163.5 -109.5t198.5 -40.5t198.5 40.5t163.5 109.5t109.5 163.5t40.5 198.5zM896 640h192q14 0 23 -9t9 -23q0 -12 -10 -24l-319 -319q-9 -9 -23 -9t-23 9l-320 320q-9 9 -9 23q0 13 9.5 22.5t22.5 9.5h192v352
q0 13 9.5 22.5t22.5 9.5h192q13 0 22.5 -9.5t9.5 -22.5v-352z" />
    <glyph glyph-name="upload" unicode="&#xf01b;" 
d="M1536 640q0 -209 -103 -385.5t-279.5 -279.5t-385.5 -103t-385.5 103t-279.5 279.5t-103 385.5t103 385.5t279.5 279.5t385.5 103t385.5 -103t279.5 -279.5t103 -385.5zM1280 640q0 104 -40.5 198.5t-109.5 163.5t-163.5 109.5t-198.5 40.5t-198.5 -40.5t-163.5 -109.5
t-109.5 -163.5t-40.5 -198.5t40.5 -198.5t109.5 -163.5t163.5 -109.5t198.5 -40.5t198.5 40.5t163.5 109.5t109.5 163.5t40.5 198.5zM791 1015l320 -320q9 -9 9 -23q0 -13 -9.5 -22.5t-22.5 -9.5h-192v-352q0 -13 -9.5 -22.5t-22.5 -9.5h-192q-13 0 -22.5 9.5t-9.5 22.5v352
h-192q-14 0 -23 9t-9 23q0 12 10 24l319 319q9 9 23 9t23 -9z" />
    <glyph glyph-name="inbox" unicode="&#xf01c;" 
d="M1536 546v-482q0 -26 -19 -45t-45 -19h-1408q-26 0 -45 19t-19 45v482q0 62 25 123l238 552q10 25 36.5 42t52.5 17h832q26 0 52.5 -17t36.5 -42l238 -552q25 -61 25 -123zM1023 576h316q-1 3 -2.5 8.5t-2.5 7.5l-212 496h-708l-212 -496q-1 -3 -2.5 -8.5t-2.5 -7.5h316
l95 -192h320z" />
    <glyph glyph-name="play_circle" unicode="&#xf01d;" 
d="M1536 640q0 -209 -103 -385.5t-279.5 -279.5t-385.5 -103t-385.5 103t-279.5 279.5t-103 385.5t103 385.5t279.5 279.5t385.5 103t385.5 -103t279.5 -279.5t103 -385.5zM1280 640q0 104 -40.5 198.5t-109.5 163.5t-163.5 109.5t-198.5 40.5t-198.5 -40.5t-163.5 -109.5
t-109.5 -163.5t-40.5 -198.5t40.5 -198.5t109.5 -163.5t163.5 -109.5t198.5 -40.5t198.5 40.5t163.5 109.5t109.5 163.5t40.5 198.5zM607 984l512 -288q33 -19 33 -56t-33 -56l-512 -288q-14 -8 -31 -8t-32 9q-32 18 -32 55v576q0 37 32 55q31 20 63 1z" />
    <glyph glyph-name="repeat" unicode="&#xf01e;" 
d="M1536 1280v-448q0 -26 -19 -45t-45 -19h-448q-42 0 -59 40q-17 39 14 69l138 138q-148 137 -349 137q-104 0 -198.5 -40.5t-163.5 -109.5t-109.5 -163.5t-40.5 -198.5t40.5 -198.5t109.5 -163.5t163.5 -109.5t198.5 -40.5q169 0 304 99.5t185 261.5q7 23 30 23h199
q16 0 25 -12q10 -13 7 -27q-39 -175 -147.5 -312t-266 -213t-336.5 -76q-156 0 -298 61t-245 164t-164 245t-61 298t61 298t164 245t245 164t298 61q147 0 284.5 -55.5t244.5 -156.5l130 129q29 31 70 14q39 -17 39 -59z" />
    <glyph glyph-name="refresh" unicode="&#xf021;" 
d="M1536 1280v-448q0 -26 -19 -45t-45 -19h-448q-26 0 -45 19t-19 45t19 45l138 138q-148 137 -349 137q-134 0 -250 -65t-186 -179q-11 -17 -53 -117q-8 -23 -30 -23h-199q-13 0 -22.5 9.5t-9.5 22.5v7q65 268 270 434.5t480 166.5q146 0 284 -55.5t245 -156.5l130 129
q19 19 45 19t45 -19t19 -45zM1287 512h192q13 0 22.5 -9.5t9.5 -22.5q0 -5 -1 -7q-64 -268 -268 -434.5t-478 -166.5q-146 0 -282.5 55t-243.5 157l-129 -129q-19 -19 -45 -19t-45 19t-19 45v448q0 26 19 45t45 19h448q26 0 45 -19t19 -45t-19 -45l-137 -137
q71 -66 161 -102t187 -36q134 0 250 65t186 179q11 17 53 117q8 23 30 23z" />
    <glyph glyph-name="list_alt" unicode="&#xf022;" horiz-adv-x="1792" 
d="M1792 1248v-1088q0 -66 -47 -113t-113 -47h-1472q-66 0 -113 47t-47 113v1088q0 66 47 113t113 47h1472q66 0 113 -47t47 -113zM160 128h1472q13 0 22.5 9.5t9.5 22.5v832q0 13 -9.5 22.5t-22.5 9.5h-1472q-13 0 -22.5 -9.5t-9.5 -22.5v-832q0 -13 9.5 -22.5t22.5 -9.5z
M384 864v-64q0 -13 -9.5 -22.5t-22.5 -9.5h-64q-13 0 -22.5 9.5t-9.5 22.5v64q0 13 9.5 22.5t22.5 9.5h64q13 0 22.5 -9.5t9.5 -22.5zM1536 864v-64q0 -13 -9.5 -22.5t-22.5 -9.5h-960q-13 0 -22.5 9.5t-9.5 22.5v64q0 13 9.5 22.5t22.5 9.5h960q13 0 22.5 -9.5t9.5 -22.5z
M384 608v-64q0 -13 -9.5 -22.5t-22.5 -9.5h-64q-13 0 -22.5 9.5t-9.5 22.5v64q0 13 9.5 22.5t22.5 9.5h64q13 0 22.5 -9.5t9.5 -22.5zM1536 608v-64q0 -13 -9.5 -22.5t-22.5 -9.5h-960q-13 0 -22.5 9.5t-9.5 22.5v64q0 13 9.5 22.5t22.5 9.5h960q13 0 22.5 -9.5t9.5 -22.5z
M384 352v-64q0 -13 -9.5 -22.5t-22.5 -9.5h-64q-13 0 -22.5 9.5t-9.5 22.5v64q0 13 9.5 22.5t22.5 9.5h64q13 0 22.5 -9.5t9.5 -22.5zM1536 352v-64q0 -13 -9.5 -22.5t-22.5 -9.5h-960q-13 0 -22.5 9.5t-9.5 22.5v64q0 13 9.5 22.5t22.5 9.5h960q13 0 22.5 -9.5t9.5 -22.5z
" />
    <glyph glyph-name="lock" unicode="&#xf023;" horiz-adv-x="1152" 
d="M832 840v120q0 106 -75 181t-181 75t-181 -75t-75 -181v-120h-192v120q0 184 132 316t316 132t316 -132t132 -316v-120h-192zM71 768h1010q29 0 50 -21t21 -50v-626q0 -29 -21 -50t-50 -21h-1010q-29 0 -50 21t-21 50v626q0 29 21 50t50 21z" />
    <glyph glyph-name="headphones" unicode="&#xf025;" horiz-adv-x="1666" 
d="M1599 996q66 -155 66 -325q0 -81 -31 -180q-28 -90 -78 -193q-84 -174 -239 -398q-18 -27 -52 -27q-21 0 -36 11q-21 14 -25.5 40t9.5 47q326 473 326 700q0 144 -56 274.5t-151 225.5t-225.5 151t-274.5 56t-274.5 -56t-225.5 -151t-151 -225.5t-56 -274.5
q0 -229 325 -700q15 -21 10.5 -47t-26.5 -40q-22 -15 -47.5 -10.5t-40.5 26.5q-152 219 -238 398q-53 109 -79 193q-30 101 -30 180q0 169 65 325q64 150 179 264q114 115 264 179q156 65 325 65q168 0 324 -65q149 -63 265 -179q117 -117 178 -264zM288 407l123 70
q16 9 33.5 4.5t26.5 -20.5l219 -369q9 -16 4.5 -33.5t-20.5 -27.5l-123 -70q-16 -9 -33.5 -4.5t-26.5 20.5l-219 369q-9 16 -4.5 33.5t20.5 27.5zM1250 477l123 -70q16 -10 20.5 -27.5t-5.5 -33.5l-218 -369q-10 -16 -27.5 -20.5t-33.5 4.5l-123 70q-16 10 -20.5 27.5
t5.5 33.5l218 369q10 16 27.5 20.5t33.5 -4.5zM1420 -39q84 130 135 224q22 -36 22 -78q0 -61 -42.5 -104t-103.5 -43q-2 0 -6 0.5t-5 0.5zM87 107q0 42 22 77q60 -110 135 -223q-4 -1 -11 -1q-61 0 -103.5 43t-42.5 104z" />
    <glyph glyph-name="volume_off" unicode="&#xf026;" horiz-adv-x="768" 
d="M768 1184v-1088q0 -26 -19 -45t-45 -19t-45 19l-333 333h-262q-26 0 -45 19t-19 45v384q0 26 19 45t45 19h262l333 333q19 19 45 19t45 -19t19 -45z" />
    <glyph glyph-name="volume_down" unicode="&#xf027;" horiz-adv-x="1152" 
d="M768 1184v-1088q0 -26 -19 -45t-45 -19t-45 19l-333 333h-262q-26 0 -45 19t-19 45v384q0 26 19 45t45 19h262l333 333q19 19 45 19t45 -19t19 -45zM1152 640q0 -76 -42.5 -141.5t-112.5 -93.5q-10 -5 -25 -5q-26 0 -45 18.5t-19 45.5q0 21 12 35.5t29 25t34 23t29 36
t12 56.5t-12 56.5t-29 36t-34 23t-29 25t-12 35.5q0 27 19 45.5t45 18.5q15 0 25 -5q70 -27 112.5 -93t42.5 -142z" />
    <glyph glyph-name="volume_up" unicode="&#xf028;" horiz-adv-x="1664" 
d="M1664 640q0 -230 -127 -422.5t-338 -283.5q-13 -5 -26 -5q-26 0 -45 19t-19 45q0 36 39 59q7 4 22.5 10.5t22.5 10.5q46 25 82 51q123 91 192 227t69 289t-69 289t-192 227q-36 26 -82 51q-7 4 -22.5 10.5t-22.5 10.5q-39 23 -39 59q0 26 19 45t45 19q13 0 26 -5
q211 -91 338 -283.5t127 -422.5zM768 1184v-1088q0 -26 -19 -45t-45 -19t-45 19l-333 333h-262q-26 0 -45 19t-19 45v384q0 26 19 45t45 19h262l333 333q19 19 45 19t45 -19t19 -45zM1408 640q0 -153 -85 -282.5t-225 -188.5q-13 -5 -25 -5q-27 0 -46 19t-19 45q0 39 39 59
q56 29 76 44q74 54 115.5 135.5t41.5 173.5t-41.5 173.5t-115.5 135.5q-20 15 -76 44q-39 20 -39 59q0 26 19 45t45 19q13 0 26 -5q140 -59 225 -188.5t85 -282.5zM1152 640q0 -76 -42.5 -141.5t-112.5 -93.5q-10 -5 -25 -5q-26 0 -45 18.5t-19 45.5q0 21 12 35.5t29 25
t34 23t29 36t12 56.5t-12 56.5t-29 36t-34 23t-29 25t-12 35.5q0 27 19 45.5t45 18.5q15 0 25 -5q70 -27 112.5 -93t42.5 -142z" />
    <glyph glyph-name="qrcode" unicode="&#xf029;" horiz-adv-x="1408" 
d="M640 1408v-640h-640v640h640zM1408 1408v-640h-640v640h640zM128 896h384v384h-384v-384zM896 896h384v384h-384v-384zM384 1152v-128h-128v128h128zM1152 1152v-128h-128v128h128zM640 640v-640h-640v640h640zM1408 640v-384h-384v128h-128v-384h-128v640h384v-128h128
v128h128zM128 129h384v383h-384v-383zM384 384v-128h-128v128h128zM1152 128v-128h-128v128h128zM1408 128v-128h-128v128h128z" />
    <glyph glyph-name="barcode" unicode="&#xf02a;" horiz-adv-x="1792" 
d="M256 1408v-1536h-256v1536h256zM448 1408v-1536h-128v1536h128zM576 1408v-1536h-64v1536h64zM672 1408v-1536h-64v1536h64zM896 1408v-1536h-128v1536h128zM1280 1408v-1536h-256v1536h256zM1408 1408v-1536h-64v1536h64zM1568 1408v-1536h-64v1536h64zM1792 1408v-1536
h-128v1536h128z" />
    <glyph glyph-name="tag" unicode="&#xf02b;" 
d="M763 1317l715 -714q37 -39 37 -91q0 -53 -37 -90l-491 -492q-39 -37 -91 -37q-53 0 -90 37l-715 716q-38 37 -64.5 101t-26.5 117v416q0 52 38 90t90 38h416q53 0 117 -26.5t102 -64.5zM448 1088q0 53 -37.5 90.5t-90.5 37.5t-90.5 -37.5t-37.5 -90.5t37.5 -90.5
t90.5 -37.5t90.5 37.5t37.5 90.5z" />
    <glyph glyph-name="tags" unicode="&#xf02c;" horiz-adv-x="1920" 
d="M763 1317l715 -714q37 -39 37 -91q0 -53 -37 -90l-491 -492q-39 -37 -91 -37q-53 0 -90 37l-715 716q-38 37 -64.5 101t-26.5 117v416q0 52 38 90t90 38h416q53 0 117 -26.5t102 -64.5zM1147 1317l715 -714q37 -39 37 -91q0 -53 -37 -90l-491 -492q-39 -37 -91 -37
q-36 0 -59 14t-53 45l470 470q37 37 37 90q0 52 -37 91l-715 714q-38 38 -102 64.5t-117 26.5h224q53 0 117 -26.5t102 -64.5zM448 1088q0 53 -37.5 90.5t-90.5 37.5t-90.5 -37.5t-37.5 -90.5t37.5 -90.5t90.5 -37.5t90.5 37.5t37.5 90.5z" />
    <glyph glyph-name="book" unicode="&#xf02d;" horiz-adv-x="1664" 
d="M1275 57l300 987q7 22 5 57q38 -15 59 -43q40 -57 18 -129l-275 -906q-19 -64 -76.5 -107.5t-122.5 -43.5h-923q-77 0 -148.5 53.5t-99.5 131.5q-24 67 -2 127q0 4 3 27t4 37q1 8 -3 21.5t-3 19.5q2 11 8 21t16.5 23.5t16.5 23.5q23 38 45 91.5t30 91.5q3 10 0.5 30
t-0.5 28q3 11 17 28t17 23q21 36 42 92t25 90q1 9 -2.5 32t0.5 28q4 13 22 30.5t22 22.5q19 26 42.5 84.5t27.5 96.5q1 8 -3 25.5t-2 26.5q2 8 9 18t18 23t17 21q8 12 16.5 30.5t15 35t16 36t19.5 32t26.5 23.5t36 11.5t47.5 -5.5l-1 -3q38 9 51 9h761q74 0 114 -56t18 -130
l-274 -906q-36 -119 -71.5 -153.5t-128.5 -34.5h-869q-27 0 -38 -15q-11 -16 -1 -43q24 -70 144 -70h923q29 0 56 15.5t35 41.5zM596 1120l-21 -64q-4 -13 2 -22.5t20 -9.5h608q13 0 25.5 9.5t16.5 22.5l21 64q4 13 -2 22.5t-20 9.5h-608q-13 0 -25.5 -9.5t-16.5 -22.5z
M513 864l-21 -64q-4 -13 2 -22.5t20 -9.5h608q13 0 25.5 9.5t16.5 22.5l21 64q4 13 -2 22.5t-20 9.5h-608q-13 0 -25.5 -9.5t-16.5 -22.5z" />
    <glyph glyph-name="bookmark" unicode="&#xf02e;" horiz-adv-x="1280" 
d="M186 1533h908q30 0 50.5 -21t20.5 -50v-1604q0 -37 -26 -63.5t-63 -26.5q-29 0 -55 19l-376 302q-1 1 -2.5 2t-2.5 1q-2 -2 -4 -3l-376 -302q-26 -19 -55 -19q-37 0 -63.5 26.5t-26.5 63.5v1604q0 29 21 50t50 21z" />
    <glyph glyph-name="print" unicode="&#xf02f;" horiz-adv-x="1664" 
d="M1664 576v-416q0 -13 -9.5 -22.5t-22.5 -9.5h-224v-160q0 -40 -28 -68t-68 -28h-960q-40 0 -68 28t-28 68v160h-224q-13 0 -22.5 9.5t-9.5 22.5v416q0 79 56.5 135.5t135.5 56.5h64v544q0 40 28 68t68 28h672q40 0 88 -20t76 -48l152 -152q28 -28 48 -76t20 -88v-256h64
q79 0 135.5 -56.5t56.5 -135.5zM384 640h896v384h-160q-40 0 -68 28t-28 68v160h-640v-640zM1536 576q0 26 -19 45t-45 19t-45 -19t-19 -45t19 -45t45 -19t45 19t19 45zM384 0h896v256h-896v-256z" />
    <glyph glyph-name="camera" unicode="&#xf030;" horiz-adv-x="1920" 
d="M1440 1280h224q106 0 181 -75t75 -181v-896q0 -106 -75 -181t-181 -75h-1408q-106 0 -181 75t-75 181v896q0 106 75 181t181 75h224l51 136q19 49 69.5 84.5t103.5 35.5h512q53 0 103.5 -35.5t69.5 -84.5zM960 128q185 0 316.5 131.5t131.5 316.5t-131.5 316.5
t-316.5 131.5t-316.5 -131.5t-131.5 -316.5t131.5 -316.5t316.5 -131.5zM960 864q119 0 203.5 -84.5t84.5 -203.5t-84.5 -203.5t-203.5 -84.5t-203.5 84.5t-84.5 203.5t84.5 203.5t203.5 84.5z" />
    <glyph glyph-name="font" unicode="&#xf031;" horiz-adv-x="1664" 
d="M918 1408l564 -1401h184v-119h-700v119h183l-148 367h-515l-142 -367h184v-119h-530v119h183l541 1401h196zM738 1028l-207 -538h424z" />
    <glyph glyph-name="bold" unicode="&#xf032;" horiz-adv-x="1408" 
d="M0 1391h850q92 0 174.5 -20.5t149.5 -60t106.5 -105t39.5 -149.5q0 -66 -23.5 -121.5t-55 -89t-74.5 -60.5t-70.5 -37.5t-53.5 -18.5q173 -41 266 -148.5t93 -244.5q0 -66 -19.5 -129t-62 -120t-104.5 -99.5t-153 -68t-201 -25.5h-862v118h198v1270h-198v109zM532 1282
v-518h112q23 0 43 1t58 7t68.5 16t66.5 31t60 49.5t40.5 73.5t16.5 101q0 60 -23 108t-57.5 75t-71 41.5t-68.5 14.5h-245zM532 12h224q6 0 17.5 0.5t43.5 7t61 17.5t65 35.5t61.5 57t43 86.5t17.5 120q0 61 -15 110.5t-40.5 81.5t-58.5 57.5t-69 37.5t-72.5 21.5t-68.5 10
t-57 2.5t-38 -1h-10h-104v-644z" />
    <glyph glyph-name="italic" unicode="&#xf033;" horiz-adv-x="1024" 
d="M1010 1408l-23 -109h-183l-257 -1269h184l-24 -119h-700l24 119h183l257 1269h-184l23 109h700z" />
    <glyph glyph-name="text_height" unicode="&#xf034;" horiz-adv-x="1792" 
d="M1663 144h99q12 0 20 -8t8 -20q0 -9 -5 -17h-1l-158 -209q-9 -12 -23 -12t-23 12l-159 209q-6 7 -6 17q0 12 8.5 20t19.5 8h99v978h-99q-11 0 -19.5 8.5t-8.5 20.5q0 9 6 17l159 209q9 12 23 12t23 -12l158 -209l1 -1q5 -7 5 -16q0 -12 -8 -20.5t-20 -8.5h-99v-978z
M0 1387h1280v-335h-107l-41 225h-335v-1269h213v-118h-740v118h214v1269h-335l-42 -225h-107v335z" />
    <glyph glyph-name="text_width" unicode="&#xf035;" 
d="M647 1289h-264l-33 -178h-84v264h1009v-264h-84l-33 178h-264v-925h168v-94h-583v94h168v925zM1303 245l209 -159q12 -9 12 -23t-12 -23l-209 -158v-1q-8 -5 -17 -5q-12 0 -20 8t-8 20v99h-978v-99q0 -12 -8.5 -20t-20.5 -8q-9 0 -16 5l-1 1l-209 158q-12 9 -12 23t12 23
l209 159q8 6 17 6q12 0 20.5 -8.5t8.5 -19.5v-99h978v99q0 11 8 19.5t20 8.5q10 0 17 -6z" />
    <glyph glyph-name="align_left" unicode="&#xf036;" horiz-adv-x="1792" 
d="M1179 1182h-1134q-19 0 -32 13.5t-13 31.5v136q0 19 13 32.5t32 13.5h1134q19 0 32 -13.5t13 -32.5v-136q0 -18 -13 -31.5t-32 -13.5zM1603 787h-1558q-19 0 -32 13.5t-13 31.5v136q0 19 13 32.5t32 13.5h1558q19 0 32 -13.5t13 -32.5v-136q0 -18 -13 -31.5t-32 -13.5z
M1113 394h-1068q-19 0 -32 13t-13 32v136q0 19 13 32t32 13h1068q19 0 32 -13t13 -32v-136q0 -19 -13 -32t-32 -13zM45 226h1702q19 0 32 -13t13 -32v-136q0 -19 -13 -32t-32 -13h-1702q-19 0 -32 13t-13 32v136q0 19 13 32t32 13z" />
    <glyph glyph-name="align_center" unicode="&#xf037;" horiz-adv-x="1792" 
d="M1248 1182h-703q-19 0 -32 13t-13 32v136q0 19 13 32t32 13h703q19 0 32 -13t13 -32v-136q0 -19 -13 -32t-32 -13zM1543 787h-1293q-19 0 -32 13t-13 32v136q0 19 13 32t32 13h1293q19 0 32 -13t13 -32v-136q0 -19 -13 -32t-32 -13zM1198 394h-603q-19 0 -32 13t-13 32
v136q0 19 13 32t32 13h603q19 0 32 -13t13 -32v-136q0 -19 -13 -32t-32 -13zM45 226h1702q19 0 32 -13t13 -32v-136q0 -19 -13 -32t-32 -13h-1702q-19 0 -32 13t-13 32v136q0 19 13 32t32 13z" />
    <glyph glyph-name="align_right" unicode="&#xf038;" horiz-adv-x="1792" 
d="M613 1182h1134q19 0 32 13.5t13 31.5v136q0 19 -13 32.5t-32 13.5h-1134q-19 0 -32 -13.5t-13 -32.5v-136q0 -18 13 -31.5t32 -13.5zM189 787h1558q19 0 32 13.5t13 31.5v136q0 19 -13 32.5t-32 13.5h-1558q-19 0 -32 -13.5t-13 -32.5v-136q0 -18 13 -31.5t32 -13.5z
M679 394h1068q19 0 32 13t13 32v136q0 19 -13 32t-32 13h-1068q-19 0 -32 -13t-13 -32v-136q0 -19 13 -32t32 -13zM1747 226h-1702q-19 0 -32 -13t-13 -32v-136q0 -19 13 -32t32 -13h1702q19 0 32 13t13 32v136q0 19 -13 32t-32 13z" />
    <glyph glyph-name="align_justify" unicode="&#xf039;" horiz-adv-x="1792" 
d="M1747 1182h-1702q-19 0 -32 13t-13 32v136q0 19 13 32t32 13h1702q19 0 32 -13t13 -32v-136q0 -19 -13 -32t-32 -13zM1747 787h-1702q-19 0 -32 13t-13 32v136q0 19 13 32t32 13h1702q19 0 32 -13t13 -32v-136q0 -19 -13 -32t-32 -13zM1747 394h-1702q-19 0 -32 13
t-13 32v136q0 19 13 32t32 13h1702q19 0 32 -13t13 -32v-136q0 -19 -13 -32t-32 -13zM45 226h1702q19 0 32 -13t13 -32v-136q0 -19 -13 -32t-32 -13h-1702q-19 0 -32 13t-13 32v136q0 19 13 32t32 13z" />
    <glyph glyph-name="list" unicode="&#xf03a;" horiz-adv-x="1792" 
d="M256 1376v-192q0 -13 -9.5 -22.5t-22.5 -9.5h-192q-13 0 -22.5 9.5t-9.5 22.5v192q0 13 9.5 22.5t22.5 9.5h192q13 0 22.5 -9.5t9.5 -22.5zM1792 1376v-192q0 -13 -9.5 -22.5t-22.5 -9.5h-1344q-13 0 -22.5 9.5t-9.5 22.5v192q0 13 9.5 22.5t22.5 9.5h1344
q13 0 22.5 -9.5t9.5 -22.5zM256 992v-192q0 -13 -9.5 -22.5t-22.5 -9.5h-192q-13 0 -22.5 9.5t-9.5 22.5v192q0 13 9.5 22.5t22.5 9.5h192q13 0 22.5 -9.5t9.5 -22.5zM1792 992v-192q0 -13 -9.5 -22.5t-22.5 -9.5h-1344q-13 0 -22.5 9.5t-9.5 22.5v192q0 13 9.5 22.5
t22.5 9.5h1344q13 0 22.5 -9.5t9.5 -22.5zM256 608v-192q0 -13 -9.5 -22.5t-22.5 -9.5h-192q-13 0 -22.5 9.5t-9.5 22.5v192q0 13 9.5 22.5t22.5 9.5h192q13 0 22.5 -9.5t9.5 -22.5zM1792 608v-192q0 -13 -9.5 -22.5t-22.5 -9.5h-1344q-13 0 -22.5 9.5t-9.5 22.5v192
q0 13 9.5 22.5t22.5 9.5h1344q13 0 22.5 -9.5t9.5 -22.5zM256 224v-192q0 -13 -9.5 -22.5t-22.5 -9.5h-192q-13 0 -22.5 9.5t-9.5 22.5v192q0 13 9.5 22.5t22.5 9.5h192q13 0 22.5 -9.5t9.5 -22.5zM1792 224v-192q0 -13 -9.5 -22.5t-22.5 -9.5h-1344q-13 0 -22.5 9.5
t-9.5 22.5v192q0 13 9.5 22.5t22.5 9.5h1344q13 0 22.5 -9.5t9.5 -22.5z" />
    <glyph glyph-name="indent_left" unicode="&#xf03b;" horiz-adv-x="1792" 
d="M45 1408h1702q19 0 32 -13t13 -32v-136q0 -19 -13 -32t-32 -13h-1702q-19 0 -32 13t-13 32v136q0 19 13 32t32 13zM440 966v-525q0 -19 -14 -33t-33 -14q-16 0 -28 9v1l-346 262q-19 14 -19 37q0 24 19 38l346 263q12 9 28 9q19 0 33 -13.5t14 -33.5zM675 1013h1072
q19 0 32 -13t13 -32v-136q0 -19 -13 -32t-32 -13h-1072q-19 0 -32 13t-13 32v136q0 19 13 32t32 13zM675 620h1072q19 0 32 -13t13 -32v-136q0 -19 -13 -32t-32 -13h-1072q-19 0 -32 13t-13 32v136q0 19 13 32t32 13zM45 226h1702q19 0 32 -13t13 -32v-136q0 -19 -13 -32
t-32 -13h-1702q-19 0 -32 13t-13 32v136q0 19 13 32t32 13z" />
    <glyph glyph-name="indent_right" unicode="&#xf03c;" horiz-adv-x="1792" 
d="M1747 1182h-1702q-19 0 -32 13t-13 32v136q0 19 13 32t32 13h1702q19 0 32 -13t13 -32v-136q0 -19 -13 -32t-32 -13zM75 1004l345 -263q20 -13 20 -37q0 -25 -20 -38l-345 -262q0 -1 -1 -1q-10 -9 -27 -9q-19 0 -33 14t-14 33v526q0 19 14 32.5t33 13.5q16 0 28 -9z
M1747 787h-1072q-19 0 -32 13t-13 32v136q0 19 13 32t32 13h1072q19 0 32 -13t13 -32v-136q0 -19 -13 -32t-32 -13zM1747 394h-1072q-19 0 -32 13t-13 32v136q0 19 13 32t32 13h1072q19 0 32 -13t13 -32v-136q0 -19 -13 -32t-32 -13zM45 226h1702q19 0 32 -13t13 -32v-136
q0 -19 -13 -32t-32 -13h-1702q-19 0 -32 13t-13 32v136q0 19 13 32t32 13z" />
    <glyph glyph-name="facetime_video" unicode="&#xf03d;" horiz-adv-x="1920" 
d="M1280 685l585 586q16 15 35 7q20 -8 20 -30v-1216q0 -22 -20 -30q-8 -2 -12 -2q-12 0 -23 9l-585 586v-307q0 -119 -84.5 -203.5t-203.5 -84.5h-704q-119 0 -203.5 84.5t-84.5 203.5v704q0 119 84.5 203.5t203.5 84.5h704q119 0 203.5 -84.5t84.5 -203.5v-307z" />
    <glyph glyph-name="picture" unicode="&#xf03e;" horiz-adv-x="1920" 
d="M122 1408h1676q51 0 86.5 -36t35.5 -86v-1296q0 -59 -33.5 -88.5t-76.5 -29.5h-1699q-43 0 -77 29.5t-34 88.5v1296q0 50 36 86t86 36zM122 -26h1676q8 0 14 6t6 14v1292q0 8 -6 14t-14 6h-1676q-8 0 -14 -6t-6 -14v-1292q0 -8 6 -14t14 -6zM448 768q-80 0 -136 56
t-56 136t56 136t136 56t136 -56t56 -136t-56 -136t-136 -56zM576 640l160 -160l512 512l446 -446v-448h-1468v192z" />
    <glyph glyph-name="map_marker" unicode="&#xf041;" horiz-adv-x="1024" 
d="M398 -57l-365 774q-33 70 -33 179q0 212 150 362t362 150t362 -150t150 -362q0 -109 -33 -179l-364 -774q-16 -33 -47.5 -52t-67.5 -19t-67.5 19t-46.5 52zM768 896q0 106 -75 181t-181 75t-181 -75t-75 -181t75 -181t181 -75t181 75t75 181z" />
    <glyph glyph-name="adjust" unicode="&#xf042;" 
d="M768 1408q209 0 385.5 -103t279.5 -279.5t103 -385.5t-103 -385.5t-279.5 -279.5t-385.5 -103t-385.5 103t-279.5 279.5t-103 385.5t103 385.5t279.5 279.5t385.5 103zM768 128v1024q-104 0 -198.5 -40.5t-163.5 -109.5t-109.5 -163.5t-40.5 -198.5t40.5 -198.5
t109.5 -163.5t163.5 -109.5t198.5 -40.5z" />
    <glyph glyph-name="tint" unicode="&#xf043;" horiz-adv-x="1024" 
d="M1024 512q0 -212 -150 -362t-362 -150t-362 150t-150 362q0 145 81 275q6 9 62.5 90.5t101 151t99.5 178t83 201.5q9 30 34 47t51 17t51.5 -17t33.5 -47q28 -93 83 -201.5t99.5 -178t101 -151t62.5 -90.5q81 -127 81 -275zM512 384q0 36 -20 69q-1 1 -15.5 22.5t-25.5 38
t-25 44t-21 50.5q-4 16 -21 16t-21 -16q-7 -23 -21 -50.5t-25 -44t-25.5 -38t-15.5 -22.5q-20 -33 -20 -69q0 -53 37.5 -90.5t90.5 -37.5t90.5 37.5t37.5 90.5z" />
    <glyph glyph-name="edit" unicode="&#xf044;" horiz-adv-x="1792" 
d="M1608 1498l135 -134q37 -39 37 -91q0 -53 -37 -90l-126 -126l-316 316l126 125q36 38 90 38q53 0 91 -38zM476 550l1 -1l760 760l316 -316l-922 -922h-316v316l161 161v2zM1357 -39v623q0 21 14.5 36t36.5 15q21 0 36 -15t15 -36v-626q0 -58 -39 -88.5t-83 -30.5h-1138
q-51 0 -86.5 36t-35.5 86v1136q0 50 35.5 86t86.5 36h663q21 0 36 -15t15 -36t-15 -36t-36 -15h-663q-8 0 -14 -6t-6 -14v-1136q0 -8 6 -14t14 -6h1138q8 0 14 6t6 14zM596 157l72 72l3 102l-102 -4l4 101l-99 -3l-75 -75v-77l116 -116h81z" />
    <glyph glyph-name="share" unicode="&#xf045;" horiz-adv-x="1664" 
d="M1261 1517l384 -384q19 -19 19 -45t-19 -45l-384 -384q-18 -19 -45 -19q-12 0 -25 5q-39 17 -39 59v192h-160q-323 0 -438 -131q-119 -137 -74 -473q3 -23 -20 -34q-8 -2 -12 -2q-16 0 -26 13q-10 14 -21 31t-39.5 68.5t-49.5 99.5t-38.5 114t-17.5 122q0 49 3.5 91
t14 90t28 88t47 81.5t68.5 74t94.5 61.5t124.5 48.5t159.5 30.5t196.5 11h160v192q0 42 39 59q13 5 25 5q26 0 45 -19zM1408 547v-259q0 -119 -84.5 -203.5t-203.5 -84.5h-832q-119 0 -203.5 84.5t-84.5 203.5v832q0 119 84.5 203.5t203.5 84.5h255q13 0 22.5 -9.5
t9.5 -22.5q0 -27 -26 -32q-77 -26 -133 -60q-10 -4 -16 -4h-112q-66 0 -113 -47t-47 -113v-832q0 -66 47 -113t113 -47h832q66 0 113 47t47 113v214q0 19 18 29q28 13 54 37q16 16 35 8q21 -9 21 -29z" />
    <glyph glyph-name="check" unicode="&#xf046;" horiz-adv-x="1664" 
d="M1563 1381l101 -101q20 -20 20 -49.5t-20 -50.5l-859 -859q-2 -2 -5.5 -5t-5.5 -4q-21 -14 -45 -11.5t-42 20.5l-37 37l-102 101l-3 3l-357 358q-21 21 -21 50.5t21 49.5l100 101q21 20 50.5 20t49.5 -20l348 -347l707 707q21 20 50.5 20t49.5 -20zM1261 122v463
q0 21 15 36t36 15q22 0 36.5 -15t14.5 -36v-467q0 -59 -33.5 -88.5t-76.5 -29.5h-1150q-50 0 -86 36t-36 86v1136q0 51 36 86.5t86 35.5h1013q22 0 36.5 -15t14.5 -36t-14.5 -36t-36.5 -15h-1013q-8 0 -14 -6t-6 -14v-1136q0 -8 6 -14t14 -6h1138q8 0 14 6t6 14z" />
    <glyph glyph-name="move" unicode="&#xf047;" horiz-adv-x="1792" 
d="M992 1161v-425h425v172q-2 36 34 51q34 12 58 -12l268 -268q16 -16 16 -38.5t-16 -38.5l-268 -268q-25 -25 -59 -11q-35 14 -33 50v172h-425v-425h173q16 1 30 -8.5t19 -24.5q14 -32 -11 -59l-268 -268q-16 -16 -38.5 -16t-38.5 16l-267 268q-25 25 -12 59q6 15 20 24.5
t30 8.5h172v425h-425v-172q0 -24 -15 -39q-11 -9 -17 -11q-34 -13 -60 11l-268 268q-15 16 -15 38.5t15 38.5l268 268q26 24 60 11q34 -14 32 -50v-172h425v425h-172q-16 -1 -30 8.5t-20 24.5q-13 34 12 59l267 268q16 16 38.5 16t38.5 -16l268 -268q25 -27 12 -59
q-6 -12 -12 -18q-15 -15 -38 -15h-173z" />
    <glyph glyph-name="step_backward" unicode="&#xf048;" horiz-adv-x="1024" 
d="M269 685l710 710q19 19 32 13t13 -32v-1472q0 -26 -13 -32t-32 13l-710 710q-9 9 -13 19v-678q0 -26 -19 -45t-45 -19h-128q-26 0 -45 19t-19 45v1408q0 26 19 45t45 19h128q26 0 45 -19t19 -45v-678q4 10 13 19z" />
    <glyph glyph-name="fast_backward" unicode="&#xf049;" horiz-adv-x="1792" 
d="M1037 685l710 710q19 19 32 13t13 -32v-1472q0 -26 -13 -32t-32 13l-710 710q-9 9 -13 19v-710q0 -26 -13 -32t-32 13l-710 710q-9 9 -13 19v-678q0 -26 -19 -45t-45 -19h-128q-26 0 -45 19t-19 45v1408q0 26 19 45t45 19h128q26 0 45 -19t19 -45v-678q4 10 13 19
l710 710q19 19 32 13t13 -32v-710q4 10 13 19z" />
    <glyph glyph-name="backward" unicode="&#xf04a;" horiz-adv-x="1664" 
d="M909 685l710 710q19 19 32 13t13 -32v-1472q0 -26 -13 -32t-32 13l-710 710q-9 9 -13 19v-710q0 -26 -13 -32t-32 13l-710 710q-19 19 -19 45t19 45l710 710q19 19 32 13t13 -32v-710q4 10 13 19z" />
    <glyph glyph-name="play" unicode="&#xf04b;" horiz-adv-x="1408" 
d="M1384 609l-1328 -738q-23 -13 -39.5 -3t-16.5 36v1472q0 26 16.5 36t39.5 -3l1328 -738q23 -13 23 -31t-23 -31z" />
    <glyph glyph-name="pause" unicode="&#xf04c;" 
d="M640 1344v-1408q0 -26 -19 -45t-45 -19h-512q-26 0 -45 19t-19 45v1408q0 26 19 45t45 19h512q26 0 45 -19t19 -45zM1536 1344v-1408q0 -26 -19 -45t-45 -19h-512q-26 0 -45 19t-19 45v1408q0 26 19 45t45 19h512q26 0 45 -19t19 -45z" />
    <glyph glyph-name="stop" unicode="&#xf04d;" 
d="M1536 1344v-1408q0 -26 -19 -45t-45 -19h-1408q-26 0 -45 19t-19 45v1408q0 26 19 45t45 19h1408q26 0 45 -19t19 -45z" />
    <glyph glyph-name="forward" unicode="&#xf04e;" horiz-adv-x="1664" 
d="M755 595l-710 -710q-19 -19 -32 -13t-13 32v1472q0 26 13 32t32 -13l710 -710q9 -9 13 -19v710q0 26 13 32t32 -13l710 -710q19 -19 19 -45t-19 -45l-710 -710q-19 -19 -32 -13t-13 32v710q-4 -10 -13 -19z" />
    <glyph glyph-name="fast_forward" unicode="&#xf050;" horiz-adv-x="1792" 
d="M755 595l-710 -710q-19 -19 -32 -13t-13 32v1472q0 26 13 32t32 -13l710 -710q9 -9 13 -19v710q0 26 13 32t32 -13l710 -710q9 -9 13 -19v678q0 26 19 45t45 19h128q26 0 45 -19t19 -45v-1408q0 -26 -19 -45t-45 -19h-128q-26 0 -45 19t-19 45v678q-4 -10 -13 -19
l-710 -710q-19 -19 -32 -13t-13 32v710q-4 -10 -13 -19z" />
    <glyph glyph-name="step_forward" unicode="&#xf051;" horiz-adv-x="1024" 
d="M755 595l-710 -710q-19 -19 -32 -13t-13 32v1472q0 26 13 32t32 -13l710 -710q9 -9 13 -19v678q0 26 19 45t45 19h128q26 0 45 -19t19 -45v-1408q0 -26 -19 -45t-45 -19h-128q-26 0 -45 19t-19 45v678q-4 -10 -13 -19z" />
    <glyph glyph-name="eject" unicode="&#xf052;" horiz-adv-x="1538" 
d="M14 557l710 710q19 19 45 19t45 -19l710 -710q19 -19 13 -32t-32 -13h-1472q-26 0 -32 13t13 32zM1473 0h-1408q-26 0 -45 19t-19 45v256q0 26 19 45t45 19h1408q26 0 45 -19t19 -45v-256q0 -26 -19 -45t-45 -19z" />
    <glyph glyph-name="chevron_left" unicode="&#xf053;" horiz-adv-x="1152" 
d="M110 654l704 -703q20 -21 49.5 -21t50.5 21l100 100q21 21 21 50.5t-21 50.5l-552 552l552 553q21 21 21 50.5t-21 50.5l-100 100q-21 21 -50.5 21t-49.5 -21l-704 -703l-9 -12q-14 -20 -11.5 -45.5t20.5 -43.5z" />
    <glyph glyph-name="chevron_right" unicode="&#xf054;" horiz-adv-x="1152" 
d="M1041 654l-703 -704q-21 -21 -50.5 -21t-49.5 21l-101 101q-20 20 -20 49.5t20 50.5l553 553l-553 553q-20 20 -20 49.5t20 50.5l101 100q20 21 49.5 21t50.5 -21l703 -703q7 -7 10 -11q14 -21 11.5 -46t-21.5 -43z" />
    <glyph glyph-name="plus_sign" unicode="&#xf055;" 
d="M1536 640q0 -209 -103 -385.5t-279.5 -279.5t-385.5 -103t-385.5 103t-279.5 279.5t-103 385.5t103 385.5t279.5 279.5t385.5 103t385.5 -103t279.5 -279.5t103 -385.5zM896 512h256q26 0 45 19t19 45v128q0 26 -19 45t-45 19h-256v256q0 26 -19 45t-45 19h-128
q-26 0 -45 -19t-19 -45v-256h-256q-26 0 -45 -19t-19 -45v-128q0 -26 19 -45t45 -19h256v-256q0 -26 19 -45t45 -19h128q26 0 45 19t19 45v256z" />
    <glyph glyph-name="minus_sign" unicode="&#xf056;" 
d="M1536 640q0 -209 -103 -385.5t-279.5 -279.5t-385.5 -103t-385.5 103t-279.5 279.5t-103 385.5t103 385.5t279.5 279.5t385.5 103t385.5 -103t279.5 -279.5t103 -385.5zM384 512h768q26 0 45 19t19 45v128q0 26 -19 45t-45 19h-768q-26 0 -45 -19t-19 -45v-128
q0 -26 19 -45t45 -19z" />
    <glyph glyph-name="remove_sign" unicode="&#xf057;" 
d="M1536 640q0 -209 -103 -385.5t-279.5 -279.5t-385.5 -103t-385.5 103t-279.5 279.5t-103 385.5t103 385.5t279.5 279.5t385.5 103t385.5 -103t279.5 -279.5t103 -385.5zM1040 278l90 90q19 19 19 46q0 26 -19 45l-181 181l181 181q19 19 19 45q0 27 -19 46l-90 90
q-19 19 -46 19q-26 0 -45 -19l-181 -181l-181 181q-19 19 -45 19q-27 0 -46 -19l-90 -90q-19 -19 -19 -46q0 -26 19 -45l181 -181l-181 -181q-19 -19 -19 -45q0 -27 19 -46l90 -90q19 -19 46 -19q26 0 45 19l181 181l181 -181q19 -19 45 -19q27 0 46 19z" />
    <glyph glyph-name="ok_sign" unicode="&#xf058;" 
d="M1536 640q0 -209 -103 -385.5t-279.5 -279.5t-385.5 -103t-385.5 103t-279.5 279.5t-103 385.5t103 385.5t279.5 279.5t385.5 103t385.5 -103t279.5 -279.5t103 -385.5zM723 214l543 543q18 18 18 45q0 28 -18 46l-91 90q-19 19 -45 19t-45 -19l-408 -407l-226 226
q-19 19 -45 19t-45 -19l-91 -90q-18 -18 -18 -46q0 -27 18 -45l362 -362q19 -19 45 -19q27 0 46 19z" />
    <glyph glyph-name="question_sign" unicode="&#xf059;" 
d="M768 1408q209 0 385.5 -103t279.5 -279.5t103 -385.5t-103 -385.5t-279.5 -279.5t-385.5 -103t-385.5 103t-279.5 279.5t-103 385.5t103 385.5t279.5 279.5t385.5 103zM857 476v37q0 37 28.5 70t68.5 61t80.5 61t69 85.5t28.5 119.5q0 116 -92.5 188t-250.5 72
q-201 0 -334 -131q-10 -10 -12.5 -25t7.5 -27l94 -106q17 -20 39 2v1q77 79 182 79q64 0 97 -26.5t33 -67.5q0 -23 -13.5 -44t-34.5 -38t-47 -35t-52 -38.5t-47 -44.5t-34.5 -58t-13.5 -73v-62q0 -5 1.5 -10t9 -11t19.5 -6h143q18 0 24.5 9t6.5 18zM756 91q51 0 88 37t37 87
q0 51 -37 88t-88 37t-87.5 -37t-36.5 -88q0 -50 36.5 -87t87.5 -37z" />
    <glyph glyph-name="info_sign" unicode="&#xf05a;" 
d="M1536 640q0 -209 -103 -385.5t-279.5 -279.5t-385.5 -103t-385.5 103t-279.5 279.5t-103 385.5t103 385.5t279.5 279.5t385.5 103t385.5 -103t279.5 -279.5t103 -385.5zM672 896h192q14 0 23 9t9 23v192q0 14 -9 23t-23 9h-192q-14 0 -23 -9t-9 -23v-192q0 -14 9 -23
t23 -9zM544 128h448q14 0 23 9t9 23v64q0 14 -9 23t-23 9h-96v480q0 14 -9 23t-23 9h-320q-14 0 -23 -9t-9 -23v-64q0 -14 9 -23t23 -9h96v-384h-96q-14 0 -23 -9t-9 -23v-64q0 -14 9 -23t23 -9z" />
    <glyph glyph-name="screenshot" unicode="&#xf05b;" 
d="M1536 704v-128q0 -26 -19 -45t-45 -19h-143q-37 -161 -154.5 -278.5t-278.5 -154.5v-143q0 -26 -19 -45t-45 -19h-128q-26 0 -45 19t-19 45v143q-161 37 -278.5 154.5t-154.5 278.5h-143q-26 0 -45 19t-19 45v128q0 26 19 45t45 19h143q37 161 154.5 278.5t278.5 154.5
v143q0 26 19 45t45 19h128q26 0 45 -19t19 -45v-143q161 -37 278.5 -154.5t154.5 -278.5h143q26 0 45 -19t19 -45zM896 320v-109q108 32 188.5 112.5t112.5 188.5h-109q-26 0 -45 19t-19 45v128q0 26 19 45t45 19h109q-32 108 -112.5 188.5t-188.5 112.5v-109q0 -26 -19 -45
t-45 -19h-128q-26 0 -45 19t-19 45v109q-108 -32 -188.5 -112.5t-112.5 -188.5h109q26 0 45 -19t19 -45v-128q0 -26 -19 -45t-45 -19h-109q32 -108 112.5 -188.5t188.5 -112.5v109q0 26 19 45t45 19h128q26 0 45 -19t19 -45z" />
    <glyph glyph-name="remove_circle" unicode="&#xf05c;" 
d="M1536 640q0 -209 -103 -385.5t-279.5 -279.5t-385.5 -103t-385.5 103t-279.5 279.5t-103 385.5t103 385.5t279.5 279.5t385.5 103t385.5 -103t279.5 -279.5t103 -385.5zM1280 640q0 104 -40.5 198.5t-109.5 163.5t-163.5 109.5t-198.5 40.5t-198.5 -40.5t-163.5 -109.5
t-109.5 -163.5t-40.5 -198.5t40.5 -198.5t109.5 -163.5t163.5 -109.5t198.5 -40.5t198.5 40.5t163.5 109.5t109.5 163.5t40.5 198.5zM960 640l147 -147q18 -18 18 -45t-18 -45l-102 -102q-18 -18 -45 -18t-45 18l-147 147l-147 -147q-18 -18 -45 -18t-45 18l-102 102
q-18 18 -18 45t18 45l147 147l-147 147q-18 18 -18 45t18 45l102 102q18 18 45 18t45 -18l147 -147l147 147q18 18 45 18t45 -18l102 -102q18 -18 18 -45t-18 -45z" />
    <glyph glyph-name="ok_circle" unicode="&#xf05d;" 
d="M1536 640q0 -209 -103 -385.5t-279.5 -279.5t-385.5 -103t-385.5 103t-279.5 279.5t-103 385.5t103 385.5t279.5 279.5t385.5 103t385.5 -103t279.5 -279.5t103 -385.5zM1280 640q0 104 -40.5 198.5t-109.5 163.5t-163.5 109.5t-198.5 40.5t-198.5 -40.5t-163.5 -109.5
t-109.5 -163.5t-40.5 -198.5t40.5 -198.5t109.5 -163.5t163.5 -109.5t198.5 -40.5t198.5 40.5t163.5 109.5t109.5 163.5t40.5 198.5zM1069 915l102 -102q18 -18 18 -45t-18 -45l-422 -422q-18 -18 -45 -18t-45 18l-294 294q-18 18 -18 45t18 45l102 102q18 18 45 18t45 -18
l147 -147l275 275q18 18 45 18t45 -18z" />
    <glyph glyph-name="ban_circle" unicode="&#xf05e;" 
d="M1536 640q0 -209 -103 -385.5t-279.5 -279.5t-385.5 -103t-385.5 103t-279.5 279.5t-103 385.5t103 385.5t279.5 279.5t385.5 103t385.5 -103t279.5 -279.5t103 -385.5zM327 380l701 701q-121 71 -260 71q-104 0 -198.5 -40.5t-163.5 -109.5t-109.5 -163.5t-40.5 -198.5
q0 -139 71 -260zM1209 900l-701 -701q121 -71 260 -71q104 0 198.5 40.5t163.5 109.5t109.5 163.5t40.5 198.5q0 139 -71 260z" />
    <glyph glyph-name="arrow_left" unicode="&#xf060;" 
d="M-9 525l703 -703q21 -21 50.5 -21t49.5 21l101 100q21 21 21 50.5t-21 50.5l-411 410h1007q29 0 50 21t21 50v142q0 29 -21 50t-50 21h-1007l411 411q21 21 21 50.5t-21 50.5l-101 100q-20 21 -49.5 21t-50.5 -21l-703 -703q-19 -19 -21 -44t12 -46q4 -6 9 -11z" />
    <glyph glyph-name="arrow_right" unicode="&#xf061;" 
d="M1545 524l-703 -704q-21 -20 -50.5 -20t-49.5 20l-101 101q-21 21 -21 50t21 50l411 411h-1007q-29 0 -50 20.5t-21 50.5v142q0 29 21 50t50 21h1007l-411 411q-21 20 -21 49.5t21 50.5l101 101q20 20 49.5 20t50.5 -20l703 -704q19 -18 21 -43.5t-12 -45.5q-3 -7 -9 -11
z" />
    <glyph glyph-name="arrow_up" unicode="&#xf062;" horiz-adv-x="1664" 
d="M882 1393l704 -703q20 -21 20 -50.5t-20 -50.5l-101 -100q-20 -21 -49.5 -21t-50.5 21l-411 410v-1006q0 -29 -20.5 -50t-50.5 -21h-142q-29 0 -50 21t-21 50v1007l-411 -411q-20 -21 -49.5 -21t-50.5 21l-100 100q-21 21 -21 50.5t21 50.5l703 703q18 18 43.5 20.5
t45.5 -11.5q7 -3 11 -9z" />
    <glyph glyph-name="arrow_down" unicode="&#xf063;" horiz-adv-x="1664" 
d="M782 -114l-703 704q-21 21 -21 50t21 50l100 101q21 20 50.5 20t49.5 -20l411 -411v1007q0 29 21 50t50 21h142q29 0 50 -21t21 -50v-1007l411 411q21 20 50.5 20t49.5 -20l101 -101q20 -21 20 -50t-20 -50l-704 -704q-18 -18 -43 -20.5t-46 11.5q-8 6 -11 9z" />
    <glyph glyph-name="share_alt" unicode="&#xf064;" horiz-adv-x="1792" 
d="M1261 1453l512 -512q19 -19 19 -45t-19 -45l-512 -512q-19 -19 -45 -19t-45 19t-19 45v256h-224q-98 0 -175.5 -6t-154 -21.5t-133 -42.5t-105.5 -69.5t-80 -101t-48.5 -138.5t-17.5 -181q0 -55 5 -123q0 -6 2.5 -23.5t2.5 -26.5q0 -15 -8.5 -25t-23.5 -10q-16 0 -28 17
q-7 9 -13 22t-13.5 30t-10.5 24q-127 285 -127 451q0 199 53 333q162 403 875 403h224v256q0 26 19 45t45 19t45 -19z" />
    <glyph glyph-name="resize_full" unicode="&#xf065;" 
d="M1536 1344v-448q0 -26 -19 -45t-45 -19t-45 19l-144 144l-332 -332q-10 -10 -23 -10t-23 10l-114 114q-10 10 -10 23t10 23l332 332l-144 144q-19 19 -19 45t19 45t45 19h448q26 0 45 -19t19 -45zM631 617l114 -114q10 -10 10 -23t-10 -23l-332 -332l144 -144
q19 -19 19 -45t-19 -45t-45 -19h-448q-26 0 -45 19t-19 45v448q0 26 19 45t45 19t45 -19l144 -144l332 332q10 10 23 10t23 -10z" />
    <glyph glyph-name="resize_small" unicode="&#xf066;" 
d="M1399 1385l114 -114q10 -10 10 -23t-10 -23l-332 -332l144 -144q19 -19 19 -45t-19 -45t-45 -19h-448q-26 0 -45 19t-19 45v448q0 26 19 45t45 19t45 -19l144 -144l332 332q10 10 23 10t23 -10zM768 576v-448q0 -26 -19 -45t-45 -19t-45 19l-144 144l-332 -332
q-10 -10 -23 -10t-23 10l-114 114q-10 10 -10 23t10 23l332 332l-144 144q-19 19 -19 45t19 45t45 19h448q26 0 45 -19t19 -45z" />
    <glyph glyph-name="exclamation_sign" unicode="&#xf06a;" 
d="M768 1408q209 0 385.5 -103t279.5 -279.5t103 -385.5t-103 -385.5t-279.5 -279.5t-385.5 -103t-385.5 103t-279.5 279.5t-103 385.5t103 385.5t279.5 279.5t385.5 103zM858 1169h-180q-14 0 -24 -8q-10 -6 -10 -18l17 -669q0 -10 10 -17.5t24 -7.5h145q14 0 23.5 7.5
t10.5 17.5l18 669q0 12 -10 18q-10 8 -24 8zM768 92q51 0 87.5 37t36.5 87q0 51 -36.5 88t-87.5 37t-87.5 -37t-36.5 -88q0 -50 36.5 -87t87.5 -37z" />
    <glyph glyph-name="gift" unicode="&#xf06b;" 
d="M1536 864v-320q0 -14 -10 -22t-27 -10.5t-32 -2.5t-34.5 1.5t-24.5 1.5v-416q0 -40 -28 -68t-68 -28h-1088q-40 0 -68 28t-28 68v416q-5 0 -24.5 -1.5t-34.5 -1.5t-32 2.5t-27 10.5t-10 22v320q0 13 9.5 22.5t22.5 9.5h440q-93 0 -158.5 65.5t-65.5 158.5t65.5 158.5
t158.5 65.5q108 0 168 -77l128 -165l128 165q60 77 168 77q93 0 158.5 -65.5t65.5 -158.5t-65.5 -158.5t-158.5 -65.5h440q13 0 22.5 -9.5t9.5 -22.5zM472 1024h195l-126 161q-24 31 -69 31q-40 0 -68 -28t-28 -68t28 -68t68 -28zM870 1024h194q40 0 68 28t28 68t-28 68
t-68 28q-45 0 -69 -31zM672 128h192q27 0 45.5 13.5t18.5 38.5v716h-320v-716q0 -25 18.5 -38.5t45.5 -13.5z" />
    <glyph glyph-name="leaf" unicode="&#xf06c;" horiz-adv-x="1792" 
d="M1792 1030q0 -95 -20 -193q-46 -224 -184.5 -383t-357.5 -268q-214 -108 -438 -108q-148 0 -286 47q-15 5 -88 42t-96 37q-16 0 -39.5 -32t-45 -70t-52.5 -70t-60 -32q-43 0 -63.5 17.5t-45.5 59.5q-2 4 -6 11t-5.5 10t-3 9.5t-1.5 13.5q0 35 31 73.5t68 65.5t68 56
t31 48q0 4 -14 38t-16 44q-9 51 -9 104q0 115 43.5 220t119 184.5t170.5 139t204 95.5q55 18 145 25.5t179.5 9t178.5 6t163.5 24t113.5 56.5l29.5 29.5t29.5 28t27 20t36.5 16t43.5 4.5q39 0 70.5 -46t47.5 -112t24 -124t8 -96zM1280 832q0 26 -19 45t-45 19
q-172 0 -318 -49.5t-259.5 -134t-235.5 -219.5q-19 -21 -19 -45q0 -26 19 -45t45 -19q24 0 45 19q27 24 74 71t67 66q137 124 268.5 176t313.5 52q26 0 45 19t19 45z" />
    <glyph glyph-name="fire" unicode="&#xf06d;" horiz-adv-x="1408" 
d="M641 1535l-1 1q90 -41 160 -83t138.5 -100t113.5 -122.5t72.5 -150.5t27.5 -184q0 -78 -24.5 -144t-64 -112.5t-87.5 -88t-96 -77.5t-87.5 -72t-64 -81.5t-24.5 -96.5q0 -96 67 -224l-4 1l1 -1q-90 41 -160 83t-138.5 100t-113.5 122.5t-72.5 150.5t-27.5 184
q0 78 24.5 144t64 112.5t87.5 88t96 77.5t87.5 72t64 81.5t24.5 96.5q0 94 -66 224zM1408 -160v-64q0 -13 -9.5 -22.5t-22.5 -9.5h-1344q-13 0 -22.5 9.5t-9.5 22.5v64q0 13 9.5 22.5t22.5 9.5h1344q13 0 22.5 -9.5t9.5 -22.5z" />
    <glyph glyph-name="eye_open" unicode="&#xf06e;" horiz-adv-x="1792" 
d="M1772 645q20 -35 20 -69t-20 -69q-140 -230 -376.5 -368.5t-499.5 -138.5t-499.5 139t-376.5 368q-20 35 -20 69t20 69q140 229 376.5 368t499.5 139t499.5 -139t376.5 -368zM896 172q167 0 285.5 118.5t118.5 285.5q0 168 -118.5 286.5t-285.5 118.5
q-168 0 -286.5 -118.5t-118.5 -286.5q0 -167 118.5 -285.5t286.5 -118.5zM896 836q107 0 183 -76t76 -184q0 -107 -76 -183t-183 -76q-108 0 -184 76t-76 183q0 108 76 184t184 76zM896 736q8 0 14.5 6.5t6.5 14.5q0 9 -6.5 15t-14.5 6q-84 0 -143.5 -59t-59.5 -143
q0 -8 6.5 -14.5t14.5 -6.5q9 0 15 6.5t6 14.5q0 67 47 113.5t114 46.5z" />
    <glyph glyph-name="eye_close" unicode="&#xf070;" horiz-adv-x="1792" 
d="M1192 1274l102 -52q14 -7 19 -22.5t-3 -29.5l-655 -1281q-7 -14 -22 -19t-30 2l-101 52q-14 7 -19 22.5t2 29.5l49 94q-159 64 -292 176.5t-222 259.5q-20 35 -20 69t20 69q140 229 376.5 368t499.5 139q92 0 181 -18l64 124q7 14 22 19.5t29 -2.5zM1271 726l141 276
q224 -135 360 -358q20 -35 20 -69t-20 -69q-139 -229 -374.5 -367.5t-498.5 -139.5l94 183q134 33 220.5 142.5t86.5 250.5q0 79 -29 151zM924 833l69 135q-47 12 -97 12q-168 0 -286.5 -118.5t-118.5 -286.5q0 -91 38 -171t105 -137l69 134q-67 73 -67 174q0 108 76 184
t184 76q10 0 28 -2zM873 733l22 44q-84 -1 -143 -60t-59 -142q0 -8 6.5 -14.5t14.5 -6.5q9 0 15 6.5t6 14.5q0 60 39.5 105t98.5 53z" />
    <glyph glyph-name="warning_sign" unicode="&#xf071;" horiz-adv-x="1792" 
d="M1008 1469l768 -1408q35 -63 -2 -126q-17 -29 -46.5 -46t-63.5 -17h-1536q-34 0 -63.5 17t-46.5 46q-37 63 -2 126l768 1408q17 31 47 49t65 18t65 -18t47 -49zM986 1133h-180q-14 0 -24 -8q-10 -6 -10 -18l17 -670q0 -10 10 -17.5t24 -7.5h145q14 0 23.5 7.5t10.5 17.5
l18 670q0 12 -10 18q-10 8 -24 8zM896 55q51 0 88 37t37 88q0 50 -37 87t-88 37q-50 0 -87 -37t-37 -87q0 -51 37 -88t87 -37z" />
    <glyph glyph-name="plane" unicode="&#xf072;" horiz-adv-x="1408" 
d="M848 1008l240 240q149 149 236 149q32 0 52.5 -20.5t20.5 -52.5q0 -87 -149 -236l-240 -240l143 -746l1 -6q0 -14 -9 -23l-64 -64q-9 -9 -23 -9q-21 0 -29 18l-274 575l-245 -245q68 -238 68 -252t-9 -23l-64 -64q-9 -9 -23 -9q-18 0 -28 16l-155 280l-280 155
q-17 9 -17 28q0 14 9 23l64 65q9 9 23 9t252 -68l245 245l-575 274q-18 8 -18 29q0 14 9 23l64 64q9 9 23 9q4 0 6 -1z" />
    <glyph glyph-name="calendar" unicode="&#xf073;" horiz-adv-x="1664" 
d="M1664 1152v-1280q0 -52 -38 -90t-90 -38h-1408q-52 0 -90 38t-38 90v1280q0 52 38 90t90 38h128v96q0 66 47 113t113 47h64q66 0 113 -47t47 -113v-96h384v96q0 66 47 113t113 47h64q66 0 113 -47t47 -113v-96h128q52 0 90 -38t38 -90zM416 1056h64q13 0 22.5 9.5
t9.5 22.5v288q0 13 -9.5 22.5t-22.5 9.5h-64q-13 0 -22.5 -9.5t-9.5 -22.5v-288q0 -13 9.5 -22.5t22.5 -9.5zM1184 1056h64q13 0 22.5 9.5t9.5 22.5v288q0 13 -9.5 22.5t-22.5 9.5h-64q-13 0 -22.5 -9.5t-9.5 -22.5v-288q0 -13 9.5 -22.5t22.5 -9.5zM128 608h288v288h-288
v-288zM480 608h320v288h-320v-288zM864 608h320v288h-320v-288zM1248 608h288v288h-288v-288zM128 224h288v320h-288v-320zM480 224h320v320h-320v-320zM864 224h320v320h-320v-320zM1248 224h288v320h-288v-320zM128 -128h288v288h-288v-288zM480 -128h320v288h-320v-288z
M864 -128h320v288h-320v-288zM1248 -128h288v288h-288v-288z" />
    <glyph glyph-name="random" unicode="&#xf074;" horiz-adv-x="1792" 
d="M1464 1494l319 -319q9 -9 9 -23t-9 -23l-320 -320q-9 -9 -23 -9q-13 0 -22.5 9.5t-9.5 22.5v192h-256q-48 0 -87 -15t-69 -45t-51 -61.5t-45 -77.5q-32 -62 -78 -171q-29 -66 -49.5 -111t-54 -105t-64 -100t-74 -83t-90 -68.5t-106.5 -42t-128 -16.5h-224q-14 0 -23 9
t-9 23v192q0 14 9 23t23 9h224q48 0 87 15t69 45t51 61.5t45 77.5q32 62 78 171q29 66 49.5 111t54 105t64 100t74 83t90 68.5t106.5 42t128 16.5h256v192q0 14 9 23t23 9q12 0 24 -10zM32 1280h224q250 0 410 -225q-60 -92 -137 -273q-22 45 -37 72.5t-40.5 63.5t-51 56.5
t-63 35t-81.5 14.5h-224q-14 0 -23 9t-9 23v192q0 14 9 23t23 9zM1464 598l319 -319q9 -9 9 -23t-9 -23l-320 -320q-9 -9 -23 -9q-13 0 -22.5 9.5t-9.5 22.5v192q-32 0 -85 -0.5t-81 -1t-73 1t-71 5t-64 10.5t-63 18.5t-58 28.5t-59 40t-55 53.5t-56 69.5q59 93 136 273
q22 -45 37 -72.5t40.5 -63.5t51 -56.5t63 -35t81.5 -14.5h256v192q0 14 9 23t23 9q12 0 24 -10z" />
    <glyph glyph-name="comment" unicode="&#xf075;" horiz-adv-x="1792" 
d="M1792 640q0 -174 -120 -321.5t-326 -233t-450 -85.5q-70 0 -145 8q-198 -175 -460 -242q-49 -14 -114 -22q-17 -2 -30.5 9t-17.5 29v1q-3 4 -0.5 12t2 10t4.5 9.5l6 9t7 8.5t8 9q7 8 31 34.5t34.5 38t31 39.5t32.5 51t27 59t26 76q-157 89 -247.5 220t-90.5 281
q0 130 71 248.5t191 204.5t286 136.5t348 50.5q244 0 450 -85.5t326 -233t120 -321.5z" />
    <glyph glyph-name="magnet" unicode="&#xf076;" 
d="M512 1344v-384q0 -26 -19 -45t-45 -19h-384q-26 0 -45 19t-19 45v384q0 26 19 45t45 19h384q26 0 45 -19t19 -45zM1536 1344v-384q0 -26 -19 -45t-45 -19h-384q-26 0 -45 19t-19 45v384q0 26 19 45t45 19h384q26 0 45 -19t19 -45zM1536 704v-128q0 -201 -98.5 -362
t-274 -251.5t-395.5 -90.5t-395.5 90.5t-274 251.5t-98.5 362v128q0 26 19 45t45 19h384q26 0 45 -19t19 -45v-128q0 -52 23.5 -90t53.5 -57t71 -30t64 -13t44 -2t44 2t64 13t71 30t53.5 57t23.5 90v128q0 26 19 45t45 19h384q26 0 45 -19t19 -45z" />
    <glyph glyph-name="chevron_up" unicode="&#xf077;" horiz-adv-x="1664" 
d="M882 1042l704 -703q21 -21 21 -50.5t-21 -50.5l-101 -100q-20 -21 -49.5 -21t-50.5 21l-553 552l-552 -552q-21 -21 -50.5 -21t-50.5 21l-100 100q-21 21 -21 50.5t21 50.5l703 703q2 2 5.5 5t5.5 4q21 14 46 11.5t43 -20.5z" />
    <glyph glyph-name="chevron_down" unicode="&#xf078;" horiz-adv-x="1664" 
d="M782 111l-704 703q-21 21 -21 50.5t21 50.5l101 100q20 21 49.5 21t50.5 -21l553 -553l553 553q20 21 49.5 21t50.5 -21l100 -100q21 -21 21 -50.5t-21 -50.5l-703 -703q-2 -2 -5.5 -4.5t-5.5 -4.5q-21 -14 -46 -11.5t-43 20.5z" />
    <glyph glyph-name="retweet" unicode="&#xf079;" horiz-adv-x="1920" 
d="M1664 512h192q26 0 45 -19t19 -45q0 -24 -15 -41l-320 -384q-20 -23 -49 -23t-49 23l-320 384q-15 17 -15 41q0 26 19 45t45 19h192v384h-576q-16 0 -25 12l-160 192q-7 9 -7 20q0 13 9.5 22.5t22.5 9.5h960q8 0 13.5 -2t9 -7t5.5 -8t3 -11.5t1 -11.5v-13v-11v-576z
M1113 245l160 -192q7 -10 7 -21q0 -13 -9.5 -22.5t-22.5 -9.5h-960q-8 0 -13.5 2t-9 7t-5.5 8t-3 11.5t-1 11.5v13v11v576h-192q-26 0 -45 19t-19 45q0 24 15 41l320 384q19 22 49 22t49 -22l320 -384q15 -17 15 -41q0 -26 -19 -45t-45 -19h-192v-384h576q16 0 25 -11z" />
    <glyph glyph-name="shopping_cart" unicode="&#xf07a;" horiz-adv-x="1664" 
d="M1664 1088v-512q0 -24 -16 -42.5t-41 -21.5l-1044 -122q1 -7 4.5 -21.5t6 -26.5t2.5 -22q0 -16 -24 -64h920q26 0 45 -19t19 -45t-19 -45t-45 -19h-1024q-26 0 -45 19t-19 45q0 14 11 39.5t29.5 59.5t20.5 38l-177 823h-204q-26 0 -45 19t-19 45t19 45t45 19h256
q16 0 28.5 -6.5t20 -15.5t13 -24.5t7.5 -26.5t5.5 -29.5t4.5 -25.5h1201q26 0 45 -19t19 -45zM640 0q0 -53 -37.5 -90.5t-90.5 -37.5t-90.5 37.5t-37.5 90.5t37.5 90.5t90.5 37.5t90.5 -37.5t37.5 -90.5zM1536 0q0 -53 -37.5 -90.5t-90.5 -37.5t-90.5 37.5t-37.5 90.5
t37.5 90.5t90.5 37.5t90.5 -37.5t37.5 -90.5z" />
    <glyph glyph-name="folder_close" unicode="&#xf07b;" horiz-adv-x="1664" 
d="M811 1152h782q29 0 50 -21t21 -50v-1010q0 -30 -21 -50.5t-50 -20.5h-1522q-29 0 -50 20.5t-21 50.5v1265q0 29 21 50t50 21h563q73 0 101 -71z" />
    <glyph glyph-name="folder_open" unicode="&#xf07c;" horiz-adv-x="1920" 
d="M1794 1081v-151h-1664v407q0 29 21 50t50 21h563q73 0 101 -71l76 -185h782q29 0 50 -20.5t21 -50.5zM34 836h1855q36 0 57.5 -18.5t15.5 -43.5l-168 -722q0 -22 -21 -37t-50 -15h-1522q-30 0 -50.5 15t-20.5 37l-169 722q-6 25 15.5 43.5t57.5 18.5z" />
    <glyph glyph-name="resize_vertical" unicode="&#xf07d;" horiz-adv-x="768" 
d="M429 1517l256 -256q19 -19 19 -45t-19 -45t-45 -19h-128v-1024h128q26 0 45 -19t19 -45t-19 -45l-256 -256q-19 -19 -45 -19t-45 19l-256 256q-19 19 -19 45t19 45t45 19h128v1024h-128q-26 0 -45 19t-19 45t19 45l256 256q19 19 45 19t45 -19z" />
    <glyph glyph-name="resize_horizontal" unicode="&#xf07e;" horiz-adv-x="1792" 
d="M1517 941l256 -256q19 -19 19 -45t-19 -45l-256 -256q-19 -19 -45 -19t-45 19t-19 45v128h-1024v-128q0 -26 -19 -45t-45 -19t-45 19l-256 256q-19 19 -19 45t19 45l256 256q19 19 45 19t45 -19t19 -45v-128h1024v128q0 26 19 45t45 19t45 -19z" />
    <glyph glyph-name="bar_chart" unicode="&#xf080;" horiz-adv-x="1920" 
d="M122 1408h1677q50 0 85.5 -36t35.5 -86v-1296q0 -59 -33.5 -88.5t-76.5 -29.5h-1699q-43 0 -77 29.5t-34 88.5v1296q0 50 36 86t86 36zM122 -26h1677q8 0 13.5 6t5.5 14v1292q0 8 -5.5 14t-13.5 6h-1677q-8 0 -14 -6t-6 -14v-1292q0 -8 6 -14t14 -6zM1664 1124v-1024
h-256v1024h256zM896 996v-896h-256v896h256zM1280 740v-640h-256v640h256zM512 484v-384h-256v384h256z" />
    <glyph glyph-name="plug" unicode="&#xf081;" 
d="M455 1401h86q24 0 41 -17t17 -42v-376h-203v376q0 25 17 42t42 17zM1001 1401h86q24 0 41 -17t17 -42v-376h-203v376q0 25 17.5 42t41.5 17zM209 902h1124q29 0 50 -21t21 -50v-105q0 -29 -21 -50t-50 -21h-1124q-30 0 -51 21t-21 50v105q0 29 21 50t51 21zM669 118h-34
q-140 0 -239.5 99.5t-99.5 239.5v137h949v-137q0 -140 -99 -239.5t-240 -99.5h-34v-249h-203v249z" />
    <glyph glyph-name="facebook_sign" unicode="&#xf082;" 
d="M288 1408h960q119 0 203.5 -84.5t84.5 -203.5v-960q0 -119 -84.5 -203.5t-203.5 -84.5h-350q-2 0 -2 1v671h177q31 0 32 23l12 164q2 15 -8 25q-10 12 -24 12h-189v72q0 44 11.5 57t54.5 13q57 0 117 -13q13 -3 26 5q11 8 13 22l23 166q2 12 -5.5 22.5t-19.5 13.5
q-93 26 -197 26q-311 0 -311 -299v-85h-95q-13 0 -23 -10.5t-10 -24.5v-172q0 -8 5.5 -12t10 -4.5t17.5 -0.5h95v-671l10 -1h-330q-119 0 -203.5 84.5t-84.5 203.5v960q0 119 84.5 203.5t203.5 84.5z" />
    <glyph glyph-name="camera_retro" unicode="&#xf083;" horiz-adv-x="1792" 
d="M1792 1280v-1280q0 -53 -37.5 -90.5t-90.5 -37.5h-1536q-53 0 -90.5 37.5t-37.5 90.5v1280q0 53 37.5 90.5t90.5 37.5h1536q53 0 90.5 -37.5t37.5 -90.5zM256 1216h384v128h-384v-128zM128 1024h1536v256h-828l-64 -128h-644v-128zM1280 574q0 159 -112.5 271.5
t-271.5 112.5t-271.5 -112.5t-112.5 -271.5t112.5 -271.5t271.5 -112.5t271.5 112.5t112.5 271.5zM1152 574q0 -106 -75 -181t-181 -75t-181 75t-75 181t75 181t181 75t181 -75t75 -181zM928 704q0 14 -9 23t-23 9q-66 0 -113 -47t-47 -113q0 -14 9 -23t23 -9t23 9t9 23
q0 40 28 68t68 28q14 0 23 9t9 23zM128 0h1536v128h-1536v-128z" />
    <glyph glyph-name="key" unicode="&#xf084;" horiz-adv-x="1792" 
d="M29 -39l788 877q-41 98 -41 200q0 138 68 254.5t184.5 184.5t254.5 68q137 0 253.5 -68t184.5 -184.5t68 -254.5q0 -209 -148.5 -357.5t-357.5 -148.5q-133 0 -248 65l-104 -98l-74 4l19 -160q2 -8 -8 -18l-36 -36q-5 -6 -17 -6l-121 11l13 -120q2 -10 -8 -18l-35 -36
q-6 -6 -18 -6l-121 11l13 -119q1 -8 -7 -19l-36 -36q-6 -5 -18 -5l-120 11l13 -120q1 -7 -8 -19l-36 -35q-5 -6 -17 -6l-182 15q-55 4 -89.5 33t-34.5 67q0 28 18 57q1 2 3.5 6t4.5 6zM1397 1008q66 0 113 47t47 114q0 66 -47 113t-113 47q-67 0 -114 -47t-47 -113
q0 -67 47 -114t114 -47zM162 -80l749 805q13 14 -2 27q-5 6 -13.5 6t-13.5 -7l-748 -805q-14 -14 0 -27q6 -6 14 -6q7 0 14 7z" />
    <glyph glyph-name="cogs" unicode="&#xf085;" horiz-adv-x="1920" 
d="M1920 1222v-140q0 -16 -149 -31q-12 -27 -30 -52q51 -113 51 -138q0 -4 -4 -7q-122 -71 -124 -71q-8 0 -46 47t-52 68q-20 -2 -30 -2t-30 2q-14 -21 -52 -68t-46 -47q-2 0 -124 71q-4 3 -4 7q0 25 51 138q-18 25 -30 52q-149 15 -149 31v140q0 16 149 31q13 29 30 52
q-51 113 -51 138q0 4 4 7q4 2 35 20t59 34t30 16q8 0 46 -46.5t52 -67.5q20 2 30 2t30 -2q51 71 92 112l6 2q4 0 124 -70q4 -3 4 -7q0 -25 -51 -138q17 -23 30 -52q149 -15 149 -31zM1280 731v-185q0 -10 -7 -19.5t-16 -10.5l-155 -24q-11 -35 -32 -76q34 -48 90 -115
q7 -11 7 -20q0 -12 -7 -19q-23 -30 -82.5 -89.5t-78.5 -59.5q-11 0 -21 7l-115 90q-37 -19 -77 -31q-11 -108 -23 -155q-7 -24 -30 -24h-186q-11 0 -20 7.5t-10 17.5l-23 153q-34 10 -75 31l-118 -89q-7 -7 -20 -7q-11 0 -21 8q-144 133 -144 160q0 9 7 19q10 14 41 53
t47 61q-23 44 -35 82l-152 24q-10 1 -17 9.5t-7 19.5v185q0 10 7 19.5t16 10.5l155 24q11 35 32 76q-34 48 -90 115q-7 11 -7 20q0 12 7 20q22 30 82 89t79 59q11 0 21 -7l115 -90q34 18 77 32q11 108 23 154q7 24 30 24h186q11 0 20 -7.5t10 -17.5l23 -153q34 -10 75 -31
l118 89q8 7 20 7q11 0 21 -8q144 -133 144 -160q0 -8 -7 -19q-12 -16 -42 -54t-45 -60q23 -48 34 -82l152 -23q10 -2 17 -10.5t7 -19.5zM1664 1152q0 52 -38 90t-90 38t-90 -38t-38 -90q0 -53 37.5 -90.5t90.5 -37.5t90.5 37.5t37.5 90.5zM896 640q0 106 -75 181t-181 75
t-181 -75t-75 -181t75 -181t181 -75t181 75t75 181zM1920 198v-140q0 -16 -149 -31q-12 -27 -30 -52q51 -113 51 -138q0 -4 -4 -7q-122 -71 -124 -71q-8 0 -46 47t-52 68q-20 -2 -30 -2t-30 2q-14 -21 -52 -68t-46 -47q-2 0 -124 71q-4 3 -4 7q0 25 51 138q-18 25 -30 52
q-149 15 -149 31v140q0 16 149 31q13 29 30 52q-51 113 -51 138q0 4 4 7q4 2 35 20t59 34t30 16q8 0 46 -46.5t52 -67.5q20 2 30 2t30 -2q51 71 92 112l6 2q4 0 124 -70q4 -3 4 -7q0 -25 -51 -138q17 -23 30 -52q149 -15 149 -31zM1664 128q0 52 -38 90t-90 38t-90 -38
t-38 -90q0 -53 37.5 -90.5t90.5 -37.5t90.5 37.5t37.5 90.5z" />
    <glyph glyph-name="comments" unicode="&#xf086;" horiz-adv-x="1792" 
d="M1408 768q0 -139 -94 -257t-256.5 -186.5t-353.5 -68.5q-86 0 -176 16q-124 -88 -278 -128q-36 -9 -86 -16h-3q-11 0 -20.5 8t-11.5 21q-1 3 -1 6.5t0.5 6.5t2 6l2.5 5t3.5 5.5t4 5t4.5 5t4 4.5q5 6 23 25t26 29.5t22.5 29t25 38.5t20.5 44q-124 72 -195 177t-71 224
q0 139 94 257t256.5 186.5t353.5 68.5t353.5 -68.5t256.5 -186.5t94 -257zM1792 512q0 -120 -71 -224.5t-195 -176.5q10 -24 20.5 -44t25 -38.5t22.5 -29t26 -29.5t23 -25q1 -1 4 -4.5t4.5 -5t4 -5t3.5 -5.5l2.5 -5t2 -6t0.5 -6.5t-1 -6.5q-3 -14 -13 -22t-22 -7
q-50 7 -86 16q-154 40 -278 128q-90 -16 -176 -16q-271 0 -472 132q58 -4 88 -4q161 0 309 45t264 129q125 92 192 212t67 254q0 77 -23 152q129 -71 204 -178t75 -230z" />
    <glyph glyph-name="thumbs_up" unicode="&#xf087;" 
d="M1104 1024h176q104 0 180 -76t76 -179q0 -89 -49 -163q9 -33 9 -69q0 -77 -38 -144q3 -21 3 -43q0 -101 -60 -178q1 -139 -85 -219.5t-227 -80.5h-129q-96 0 -189.5 22.5t-216.5 65.5q-116 40 -138 40h-288q-53 0 -90.5 37.5t-37.5 90.5v640q0 53 37.5 90.5t90.5 37.5
h274q36 24 137 155q58 75 107 128q24 25 35.5 85.5t30.5 126.5t62 108q39 37 90 37q84 0 151 -32.5t102 -101.5t35 -186q0 -93 -48 -192zM960 0h121q192 0 192 167q0 26 -5 56q30 16 47.5 52.5t17.5 73.5t-18 69q53 50 53 119q0 25 -10 55.5t-25 47.5q32 1 53.5 47t21.5 81
q0 51 -39 89.5t-89 38.5h-352q0 58 48 159.5t48 160.5q0 98 -32 145t-128 47q-26 -26 -38 -85t-30.5 -125.5t-59.5 -109.5q-22 -23 -77 -91q-4 -5 -23 -30t-31.5 -41t-34.5 -42.5t-40 -44t-38.5 -35.5t-40 -27t-35.5 -9h-32v-640h32q13 0 31.5 -3t33 -6.5t38 -11t35 -11.5
t35.5 -12.5t29 -10.5q211 -73 342 -73zM256 192q0 26 -19 45t-45 19t-45 -19t-19 -45t19 -45t45 -19t45 19t19 45z" />
    <glyph glyph-name="thumbs_down" unicode="&#xf088;" 
d="M1401 1113v-5q60 -77 60 -178q0 -22 -3 -43q38 -67 38 -144q0 -36 -9 -69q49 -73 49 -163q0 -103 -76 -179t-180 -76h-176q48 -99 48 -192q0 -118 -35 -186q-35 -69 -102 -101.5t-151 -32.5q-51 0 -90 37q-34 33 -54 82t-25.5 90.5t-17.5 84.5t-31 64q-48 50 -107 127
q-101 131 -137 155h-274q-53 0 -90.5 37.5t-37.5 90.5v640q0 53 37.5 90.5t90.5 37.5h288q22 0 138 40q128 44 223 66t200 22h112q140 0 226.5 -79t85.5 -216zM928 384h352q50 0 89 38.5t39 89.5q0 35 -21.5 81t-53.5 47q15 17 25 47.5t10 55.5q0 69 -53 119q18 31 18 69
q0 37 -17.5 73.5t-47.5 52.5q5 30 5 56q0 85 -49 126t-136 41h-128q-131 0 -342 -73q-5 -2 -29 -10.5t-35.5 -12.5t-35 -11.5t-38 -11t-33 -6.5t-31.5 -3h-32v-640h32q16 0 35.5 -9t40 -27t38.5 -35.5t40 -44t34.5 -42.5t31.5 -41t23 -30q55 -68 77 -91q41 -43 59.5 -109.5
t30.5 -125.5t38 -85q96 0 128 47t32 145q0 59 -48 160.5t-48 159.5zM256 1088q0 26 -19 45t-45 19t-45 -19t-19 -45t19 -45t45 -19t45 19t19 45z" />
    <glyph glyph-name="star_half" unicode="&#xf089;" horiz-adv-x="896" 
d="M832 1504v-1339l-449 -236q-22 -12 -40 -12q-21 0 -31.5 14.5t-10.5 35.5q0 6 2 20l86 500l-364 354q-25 27 -25 48q0 37 56 46l502 73l225 455q19 41 49 41z" />
    <glyph glyph-name="heart_empty" unicode="&#xf08a;" horiz-adv-x="1792" 
d="M852 -110l-624 602q-10 8 -27.5 26t-55.5 65.5t-68 97.5t-53.5 121t-23.5 138q0 220 127 344t351 124q62 0 126.5 -21.5t120 -58t95.5 -68.5t76 -68q36 36 76 68t95.5 68.5t120 58t126.5 21.5q224 0 351 -124t127 -344q0 -221 -229 -450l-623 -600q-18 -18 -44 -18
t-44 18zM896 25l580 559q188 188 188 356q0 81 -21.5 143t-55 98.5t-81.5 59.5t-94 31t-98 8t-112 -25.5t-110.5 -64t-86.5 -72t-60 -61.5q-18 -22 -49 -22t-49 22q-24 28 -60 61.5t-86.5 72t-110.5 64t-112 25.5t-98 -8t-94 -31t-81.5 -59.5t-55 -98.5t-21.5 -143
q0 -168 187 -355z" />
    <glyph glyph-name="signout" unicode="&#xf08b;" horiz-adv-x="1664" 
d="M288 128h288h11h13t11.5 -1t11.5 -3t8 -5.5t7 -9t2 -13.5q0 -4 1 -20t0.5 -26.5t-3 -23.5t-10 -19.5t-20.5 -6.5h-320q-119 0 -203.5 84.5t-84.5 203.5v704q0 119 84.5 203.5t203.5 84.5h320q13 0 22.5 -9.5t9.5 -22.5q0 -4 1 -20t0.5 -26.5t-3 -23.5t-10 -19.5
t-20.5 -6.5h-320q-66 0 -113 -47t-47 -113v-704q0 -66 47 -113t113 -47zM1005 1229l544 -544q19 -19 19 -45t-19 -45l-544 -544q-19 -19 -45 -19t-45 19t-19 45v288h-448q-26 0 -45 19t-19 45v384q0 26 19 45t45 19h448v288q0 26 19 45t45 19t45 -19z" />
    <glyph glyph-name="linkedin_sign" unicode="&#xf08c;" 
d="M1536 1120v-960q0 -119 -84.5 -203.5t-203.5 -84.5h-960q-119 0 -203.5 84.5t-84.5 203.5v960q0 119 84.5 203.5t203.5 84.5h960q119 0 203.5 -84.5t84.5 -203.5zM503 1028q0 51 -36 87.5t-88 36.5q-51 0 -87 -36.5t-36 -87.5t36 -87.5t87 -36.5q52 0 88 36.5t36 87.5z
M1062 128h186q13 0 22.5 9.5t9.5 22.5v435q0 127 -73.5 192.5t-202.5 65.5q-90 0 -158 -45q-12 -8 -14 -12q0 36 -35 36h-176q-14 0 -29.5 -7.5t-15.5 -20.5v-644q0 -13 15.5 -22.5t29.5 -9.5h182q12 0 20.5 9.5t8.5 22.5v349q0 140 114 140q49 0 63.5 -22.5t14.5 -73.5
v-393q0 -13 12 -22.5t26 -9.5zM288 128h192q13 0 22.5 9.5t9.5 22.5v640q0 13 -9.5 22.5t-22.5 9.5h-192q-13 0 -22.5 -9.5t-9.5 -22.5v-640q0 -13 9.5 -22.5t22.5 -9.5z" />
    <glyph glyph-name="pushpin" unicode="&#xf08d;" horiz-adv-x="1152" 
d="M896 1152v-512q99 0 177.5 -98.5t78.5 -221.5q0 -26 -19 -45t-45 -19h-429l-51 -483q-2 -12 -10.5 -20.5t-20.5 -8.5h-1q-27 0 -32 27l-76 485h-404q-26 0 -45 19t-19 45q0 123 78.5 221.5t177.5 98.5v512q-52 0 -90 38t-38 90t38 90t90 38h640q52 0 90 -38t38 -90
t-38 -90t-90 -38zM416 1120v-448q0 -14 9 -23t23 -9t23 9t9 23v448q0 14 -9 23t-23 9t-23 -9t-9 -23z" />
    <glyph glyph-name="external_link" unicode="&#xf08e;" horiz-adv-x="1792" 
d="M1792 1472v-512q0 -26 -19 -45t-45 -19t-45 19l-176 176l-652 -652q-10 -10 -23 -10t-23 10l-114 114q-10 10 -10 23t10 23l652 652l-176 176q-19 19 -19 45t19 45t45 19h512q26 0 45 -19t19 -45zM1408 608v-320q0 -119 -84.5 -203.5t-203.5 -84.5h-832
q-119 0 -203.5 84.5t-84.5 203.5v832q0 119 84.5 203.5t203.5 84.5h704q14 0 23 -9t9 -23v-64q0 -14 -9 -23t-23 -9h-704q-66 0 -113 -47t-47 -113v-832q0 -66 47 -113t113 -47h832q66 0 113 47t47 113v320q0 14 9 23t23 9h64q14 0 23 -9t9 -23z" />
    <glyph glyph-name="signin" unicode="&#xf090;" 
d="M1536 992v-704q0 -119 -84.5 -203.5t-203.5 -84.5h-320q-13 0 -22.5 9.5t-9.5 22.5q0 4 -1 20t-0.5 26.5t3 23.5t10 19.5t20.5 6.5h320q66 0 113 47t47 113v704q0 66 -47 113t-113 47h-288h-11h-13t-11.5 1t-11.5 3t-8 5.5t-7 9t-2 13.5q0 4 -1 20t-0.5 26.5t3 23.5
t10 19.5t20.5 6.5h320q119 0 203.5 -84.5t84.5 -203.5zM621 1229l544 -544q19 -19 19 -45t-19 -45l-544 -544q-19 -19 -45 -19t-45 19t-19 45v288h-448q-26 0 -45 19t-19 45v384q0 26 19 45t45 19h448v288q0 26 19 45t45 19t45 -19z" />
    <glyph glyph-name="github_sign" unicode="&#xf092;" 
d="M1536 1120v-960q0 -119 -84.5 -203.5t-203.5 -84.5h-960q-119 0 -203.5 84.5t-84.5 203.5v960q0 119 84.5 203.5t203.5 84.5h960q119 0 203.5 -84.5t84.5 -203.5zM924 1072q0 36 -24 63.5t-60 27.5t-60.5 -27t-24.5 -64q0 -36 25 -62.5t60 -26.5t59.5 27t24.5 62z
M1024 771v-217q0 -37 2.5 -64t11.5 -56.5t24.5 -48.5t43.5 -31t66 -12q64 0 108 24v121q-30 -21 -68 -21q-53 0 -53 82v225h52q9 0 26.5 -1t26.5 -1v117h-105q0 82 3 102h-140q4 -24 4 -55v-47h-60v-117q36 3 37 3q4 0 11.5 -0.5t11.5 -0.5v-2h-2zM369 360v-3
q-113 -37 -113 -139q0 -60 36 -98t84 -51t107 -13q224 0 224 187q0 48 -25.5 78t-62.5 42.5t-74 21.5t-62.5 23.5t-25.5 39.5q0 44 49 52q77 15 122 70t45 134q0 24 -10 52q30 7 49 13v125q-78 -29 -135 -29q-50 29 -110 29q-86 0 -145 -57t-59 -143q0 -50 29.5 -102
t73.5 -67v-3q-38 -17 -38 -85q0 -52 41 -77zM771 350h137q-2 20 -2 90v372q0 59 2 76h-137q3 -26 3 -79v-377q0 -55 -3 -82zM546 694q0 -85 -74 -85q-77 0 -77 84q0 90 77 90q36 0 55 -26t19 -63zM582 228q0 -66 -93 -66q-107 0 -107 63q0 64 98 64q102 0 102 -61z" />
    <glyph glyph-name="upload_alt" unicode="&#xf093;" horiz-adv-x="1664" 
d="M877 1325l448 -448q19 -19 19 -45t-19 -45t-45 -19h-256v-448q0 -26 -19 -45t-45 -19h-256q-26 0 -45 19t-19 45v448h-256q-26 0 -45 19t-19 45t19 45l448 448q19 19 45 19t45 -19zM1664 480v-576q0 -13 -9.5 -22.5t-22.5 -9.5h-1600q-13 0 -22.5 9.5t-9.5 22.5v576
q0 13 9.5 22.5t22.5 9.5h192q13 0 22.5 -9.5t9.5 -22.5v-352h1152v352q0 13 9.5 22.5t22.5 9.5h192q13 0 22.5 -9.5t9.5 -22.5z" />
    <glyph glyph-name="barley" unicode="&#xf094;" 
d="M686 1086l-489 489q-6 7 -16 7q-8 0 -14.5 -6t-6.5 -15v-2v-524q0 -56 41 -97l497 -496q7 -7 15 -7q9 0 15 6t6 15v526q0 56 -48 104zM855 1086l489 489q6 7 15 7t15.5 -6t6.5 -15v-2v-524q0 -57 -42 -97l-496 -496q-7 -7 -15 -7q-9 0 -15 6t-6 15v526q0 58 48 104z
M958 1298l-153 -152q-25 -25 -35 -40q-10 17 -35 40l-152 152q73 91 187 91q115 0 188 -91zM686 350l-489 489q-7 7 -16 7q-8 0 -14.5 -6.5t-6.5 -14.5v-3v-523q0 -57 41 -98l497 -496q6 -6 15 -6t15 6t6 14v527q0 56 -48 104zM855 350l489 489q7 7 15 7q9 0 15.5 -6.5
t6.5 -14.5v-526q0 -58 -42 -98l-496 -496q-6 -6 -15 -6t-15 6t-6 14v527q0 56 48 104z" />
    <glyph glyph-name="phone" unicode="&#xf095;" horiz-adv-x="1408" 
d="M1408 296q0 -27 -10 -70.5t-21 -68.5q-21 -50 -122 -106q-94 -51 -186 -51q-27 0 -53 3.5t-57.5 12.5t-47 14.5t-55.5 20.5t-49 18q-98 35 -175 83q-127 79 -264 216t-216 264q-48 77 -83 175q-3 9 -18 49t-20.5 55.5t-14.5 47t-12.5 57.5t-3.5 53q0 92 51 186
q56 101 106 122q25 11 68.5 21t70.5 10q14 0 21 -3q18 -6 53 -76q11 -19 30 -54t35 -63.5t31 -53.5q3 -4 17.5 -25t21.5 -35.5t7 -28.5q0 -20 -28.5 -50t-62 -55t-62 -53t-28.5 -46q0 -9 5 -22.5t8.5 -20.5t14 -24t11.5 -19q76 -137 174 -235t235 -174q2 -1 19 -11.5t24 -14
t20.5 -8.5t22.5 -5q18 0 46 28.5t53 62t55 62t50 28.5q14 0 28.5 -7t35.5 -21.5t25 -17.5q25 -15 53.5 -31t63.5 -35t54 -30q70 -35 76 -53q3 -7 3 -21z" />
    <glyph glyph-name="check_empty" unicode="&#xf096;" horiz-adv-x="1664" 
d="M136 1379h1138q50 0 86 -36t36 -86v-1140q0 -59 -34 -88.5t-77 -29.5h-1161q-43 0 -76.5 29.5t-33.5 88.5v1140q0 50 35.5 86t86.5 36zM116 1257v-1136q0 -8 6 -14t14 -6h1138q8 0 14 6t6 14v1136q0 8 -6 14t-14 6h-1138q-8 0 -14 -6t-6 -14z" />
    <glyph glyph-name="publish_post" unicode="&#xf097;" horiz-adv-x="1280" 
d="M-3 883v-937q0 -40 26 -68.5t64 -28.5h1093q39 0 68 29t29 68v1331q0 39 -29 68t-68 29h-699q-39 0 -87.5 -19.5t-76.5 -47.5l-253 -261q-28 -28 -47.5 -76t-19.5 -87zM87 920l364 372v-283q0 -40 -22 -64.5t-60 -24.5h-282zM1046 868l82 -89q16 -17 16 -41t-16 -41
l-573 -573l-7 -7q-32 -21 -75 7l-29 30l-82 89l-4 4l-200 208q-18 18 -19.5 39.5t15.5 38.5l4 4l77 78q17 17 41 17t41 -17l201 -201l446 454q16 16 41 16t41 -16z" />
    <glyph glyph-name="phone_sign" unicode="&#xf098;" 
d="M1536 1120v-960q0 -119 -84.5 -203.5t-203.5 -84.5h-960q-119 0 -203.5 84.5t-84.5 203.5v960q0 119 84.5 203.5t203.5 84.5h960q119 0 203.5 -84.5t84.5 -203.5zM1280 343q0 11 -2 16t-18 16.5t-40.5 25t-47.5 26.5t-45.5 25t-28.5 15q-5 3 -19 13t-25 15t-21 5
q-15 0 -36.5 -20.5t-39.5 -45t-38.5 -45t-33.5 -20.5q-7 0 -16.5 3.5t-15.5 6.5t-17 9.5t-14 8.5q-99 55 -170 126.5t-127 170.5q-2 3 -8.5 14t-9.5 17t-6.5 15.5t-3.5 16.5q0 13 20.5 33.5t45 38.5t45 39.5t20.5 36.5q0 10 -5 21t-15 25t-13 19q-3 6 -15 28.5t-25 45.5
t-26.5 47.5t-25 40.5t-16.5 18t-16 2q-48 0 -101 -22q-46 -21 -80 -94.5t-34 -130.5q0 -16 2.5 -34t5 -30.5t9 -33t10 -29.5t12.5 -33t11 -30q60 -164 216.5 -320.5t320.5 -216.5q6 -2 30 -11t33 -12.5t29.5 -10t33 -9t30.5 -5t34 -2.5q57 0 130.5 34t94.5 80q22 53 22 101z
" />
    <glyph glyph-name="twitter" unicode="&#xf099;" horiz-adv-x="1920" 
d="M1691 994v-33q4 -227 -100 -457q-134 -297 -397.5 -464.5t-591.5 -167.5q-265 0 -500 122q-64 33 -87 50q-15 12 -15 27q0 13 9.5 22.5t22.5 9.5q14 0 44 -2.5t45 -2.5q204 0 375 106q-103 24 -181 96t-111 173q-2 8 -2 11q0 12 9 21.5t22 9.5q5 0 14 -2t12 -2
q-89 55 -142 147t-53 196q0 15 11.5 25.5t27.5 10.5q10 0 35 -11.5t30 -13.5q-92 110 -92 256q0 51 14.5 108t40.5 95q10 16 25 16q16 0 27 -12q76 -84 110 -115q123 -111 276 -177.5t317 -80.5q-4 21 -4 49q0 167 118.5 285.5t285.5 118.5q163 0 282 -114q95 20 209 82
q8 5 16 5q13 0 22.5 -9.5t9.5 -22.5q0 -24 -28 -73t-51 -76q7 2 30 10.5t43 16t24 7.5q13 0 22.5 -9.5t9.5 -22.5q0 -10 -5 -18q-64 -104 -179 -190z" />
    <glyph glyph-name="facebook" unicode="&#xf09a;" horiz-adv-x="768" 
d="M768 1336l-27 -195q-2 -16 -16 -26q-14 -9 -30 -6q-76 16 -135 16q-49 0 -62 -15.5t-13 -66.5v-88h217q16 0 27 -12q11 -13 10 -29l-14 -200q-2 -15 -12.5 -25.5t-25.5 -10.5h-202v-768q0 -16 -11 -27t-26 -11h-250q-16 0 -27 11t-11 27v768h-122q-16 0 -27 11.5
t-11 27.5v200q0 16 11 27t27 11h122v103q0 177 88 263.5t267 86.5q120 0 225 -30q14 -4 22 -16t6 -26z" />
    <glyph glyph-name="github" unicode="&#xf09b;" 
d="M1536 640q0 -209 -103 -385.5t-279.5 -279.5t-385.5 -103t-385.5 103t-279.5 279.5t-103 385.5t103 385.5t279.5 279.5t385.5 103t385.5 -103t279.5 -279.5t103 -385.5zM960 256v-226q199 62 323.5 231.5t124.5 378.5q0 130 -51 248.5t-136.5 204t-204 136.5t-248.5 51
t-248.5 -51t-204 -136.5t-136.5 -204t-51 -248.5q0 -209 124.5 -378.5t323.5 -231.5v169q-54 -7 -69 -7q-110 0 -153 100q-15 38 -36 63q-5 6 -21 19t-28.5 24t-12.5 16q0 12 28 12q29 0 51.5 -14.5t38 -35t31.5 -41.5t40.5 -35.5t56.5 -14.5q42 0 81 14q16 57 63 89
q-166 16 -246 83.5t-80 224.5q0 118 73 198q-14 42 -14 84q0 58 27 109q57 0 101 -19.5t101 -60.5q76 18 169 18q80 0 153 -16q57 40 100.5 59t99.5 19q27 -51 27 -109q0 -43 -14 -83q73 -82 73 -199q0 -157 -80 -225.5t-245 -83.5q69 -47 69 -131z" />
    <glyph glyph-name="unlock" unicode="&#xf09c;" horiz-adv-x="1664" 
d="M803 840v120q0 91 35.5 173.5t96 143t143 96t173.5 35.5t173.5 -35.5t143 -96t96 -143t35.5 -173.5v-120h-192v120q0 106 -75 181t-181 75t-181 -75t-75 -181v-120h-192zM42 768h1010q30 0 50.5 -21t20.5 -50v-626q0 -29 -20.5 -50t-50.5 -21h-1010q-29 0 -50 21t-21 50
v626q0 29 21 50t50 21z" />
    <glyph glyph-name="credit_card" unicode="&#xf09d;" horiz-adv-x="1920" 
d="M71 1267h1778q29 0 50 -21t21 -50v-80h-1920v80q0 29 20.5 50t50.5 21zM0 868h1920v-784q0 -29 -21 -50t-50 -21h-1778q-30 0 -50.5 21t-20.5 50v784zM177 96q39 0 67 27.5t28 67.5q0 39 -28 66.5t-67 27.5t-67 -27.5t-28 -66.5q0 -40 28 -67.5t67 -27.5zM809 215v-60
q0 -12 8.5 -21t20.5 -9h949q13 0 21.5 9t8.5 21v60q0 13 -8.5 21.5t-21.5 8.5h-949q-12 0 -20.5 -8.5t-8.5 -21.5z" />
    <glyph glyph-name="rss" unicode="&#xf09e;" horiz-adv-x="1408" 
d="M0 1201v143q0 28 20 46q18 18 44 18h3q262 -13 501.5 -120t425.5 -294q187 -186 294 -425.5t120 -501.5q2 -27 -18 -47q-18 -20 -46 -20h-143q-26 0 -44.5 17.5t-19.5 42.5q-12 215 -101 408.5t-231.5 336t-336 231.5t-408.5 102q-25 1 -42.5 19.5t-17.5 43.5zM0 697v135
q0 29 21 47q17 17 43 17h5q160 -13 306 -80.5t259 -181.5q114 -113 181.5 -259t80.5 -306q2 -28 -17 -48q-18 -21 -47 -21h-135q-25 0 -43 16.5t-20 41.5q-22 229 -184.5 391.5t-391.5 184.5q-25 2 -41.5 20t-16.5 43zM384 192q0 -80 -56 -136t-136 -56t-136 56t-56 136
t56 136t136 56t136 -56t56 -136z" />
    <glyph glyph-name="hdd" unicode="&#xf0a0;" 
d="M1536 480v-320q0 -66 -47 -113t-113 -47h-1216q-66 0 -113 47t-47 113v320q0 25 16 75l197 606q17 53 63 86t101 33h782q55 0 101 -33t63 -86l197 -606q16 -50 16 -75zM178 640h1180l-157 482q-4 13 -16 21.5t-26 8.5h-782q-14 0 -26 -8.5t-16 -21.5zM160 128h1216
q13 0 22.5 9.5t9.5 22.5v320q0 13 -9.5 22.5t-22.5 9.5h-1216q-13 0 -22.5 -9.5t-9.5 -22.5v-320q0 -13 9.5 -22.5t22.5 -9.5zM1040 320q0 -33 -23.5 -56.5t-56.5 -23.5t-56.5 23.5t-23.5 56.5t23.5 56.5t56.5 23.5t56.5 -23.5t23.5 -56.5zM1296 320q0 -33 -23.5 -56.5
t-56.5 -23.5t-56.5 23.5t-23.5 56.5t23.5 56.5t56.5 23.5t56.5 -23.5t23.5 -56.5z" />
    <glyph glyph-name="bullhorn" unicode="&#xf0a1;" horiz-adv-x="1792" 
d="M1664 1280v-384q53 0 90.5 -37.5t37.5 -90.5t-37.5 -90.5t-90.5 -37.5v-384q0 -52 -38 -90t-90 -38q-417 347 -812 380q-58 -19 -91 -66t-31 -100.5t40 -92.5q-20 -33 -23 -65.5t6 -58t33.5 -55t48 -50t61.5 -50.5q-29 -58 -111.5 -83t-168.5 -11.5t-132 55.5
q-7 23 -29.5 87.5t-32 94.5t-23 89t-15 101t3.5 98.5t22 110.5h-122q-66 0 -113 47t-47 113v192q0 66 47 113t113 47h480q435 0 896 384q52 0 90 -38t38 -90zM1536 292v954q-394 -302 -768 -343v-270q377 -42 768 -341z" />
    <glyph glyph-name="bell" unicode="&#xf0a2;" horiz-adv-x="1664" 
d="M576 0h-448q-52 0 -90 38t-38 90q190 161 287 397.5t97 498.5q0 165 96 262t264 117q-8 18 -8 37q0 40 28 68t68 28t68 -28t28 -68q0 -19 -8 -37q168 -20 264 -117t96 -262q0 -262 97 -498.5t287 -397.5q0 -52 -38 -90t-90 -38h-448q0 -106 -75 -181t-181 -75t-181 75
t-75 181zM183 128h1298q-164 181 -246.5 411.5t-82.5 484.5q0 256 -320 256t-320 -256q0 -254 -82.5 -484.5t-246.5 -411.5zM848 -160q0 16 -16 16q-59 0 -101.5 42.5t-42.5 101.5q0 16 -16 16t-16 -16q0 -73 51.5 -124.5t124.5 -51.5q16 0 16 16z" />
    <glyph glyph-name="certificate" unicode="&#xf0a3;" 
d="M1402 773l116 -88q18 -13 18 -35t-18 -35l-122 -93l76 -133q12 -19 3 -39t-30 -25l-142 -36l20 -145q3 -22 -12 -37t-37 -12l-152 21l-40 -148q-6 -21 -26 -30q-20 -8 -39 4l-126 74l-88 -116q-13 -18 -35 -18t-35 18l-93 122l-132 -76q-18 -11 -40 -3q-20 9 -25 30
l-36 142l-144 -20q-23 -3 -38 12t-12 38l21 151l-148 41q-21 5 -30 25q-7 21 4 39l75 126l-117 88q-18 14 -18 35t18 35l122 93l-76 133q-11 18 -3 39q9 20 31 25l141 36l-20 144q-3 23 12 38q17 15 38 12l152 -21l40 148q5 21 26 30q19 7 39 -4l125 -74l88 116q13 18 35 18
q24 0 35 -18l93 -122l133 76q18 11 39 3q20 -9 25 -30l36 -142l145 20q22 3 37 -12t12 -38l-20 -151l147 -41q22 -5 30 -25q8 -22 -3 -39z" />
    <glyph glyph-name="hand_right" unicode="&#xf0a4;" horiz-adv-x="1792" 
d="M1162 1024h374q104 0 180 -76t76 -179q0 -105 -75.5 -181t-180.5 -76h-169q-4 -62 -37 -119q3 -21 3 -43q0 -101 -60 -178q1 -139 -85 -219.5t-227 -80.5q-133 0 -322 69q-164 59 -223 59h-288q-53 0 -90.5 37.5t-37.5 90.5v640q0 53 37.5 90.5t90.5 37.5h288
q10 0 21.5 4.5t23.5 14t22.5 18t24 22.5t20.5 21.5t19 21.5t14 17q65 74 100 129q13 21 33 62t37 72t40.5 63t55 49.5t69.5 17.5q125 0 206.5 -67t81.5 -189q0 -68 -22 -128zM1205 640h331q52 0 90 38t38 90q0 51 -39 89.5t-89 38.5h-576q0 20 15 48.5t33 55t33 68t15 84.5
q0 67 -44.5 97.5t-115.5 30.5q-24 0 -90 -139q-24 -44 -37 -65q-40 -64 -112 -145q-71 -81 -101 -106q-69 -57 -140 -57h-32v-640h32q72 0 167 -32t193.5 -64t179.5 -32q189 0 189 167q0 26 -5 56q30 16 47.5 52.5t17.5 73.5t-18 69q53 50 53 119q0 25 -10 55.5t-25 47.5z
M256 192q0 26 -19 45t-45 19t-45 -19t-19 -45t19 -45t45 -19t45 19t19 45z" />
    <glyph glyph-name="hand_left" unicode="&#xf0a5;" horiz-adv-x="1792" 
d="M1792 768v-640q0 -53 -37.5 -90.5t-90.5 -37.5h-288q-59 0 -223 -59q-190 -69 -317 -69q-142 0 -230 77.5t-87 217.5l1 5q-61 76 -61 178q0 22 3 43q-33 57 -37 119h-169q-105 0 -180.5 76t-75.5 181q0 103 76 179t180 76h374q-22 60 -22 128q0 122 81.5 189t206.5 67
q38 0 69.5 -17.5t55 -49.5t40.5 -63t37 -72t33 -62q35 -55 100 -129q2 -3 14 -17t19 -21.5t20.5 -21.5t24 -22.5t22.5 -18t23.5 -14t21.5 -4.5h288q53 0 90.5 -37.5t37.5 -90.5zM1376 128h32v640h-32q-35 0 -67.5 12t-62.5 37t-50 46t-49 54q-8 9 -12 14q-72 81 -112 145
q-14 22 -38 68q-1 3 -10.5 22.5t-18.5 36t-20 35.5t-21.5 30.5t-18.5 11.5q-71 0 -115.5 -30.5t-44.5 -97.5q0 -43 15 -84.5t33 -68t33 -55t15 -48.5h-576q-50 0 -89 -38.5t-39 -89.5q0 -52 38 -90t90 -38h331q-15 -17 -25 -47.5t-10 -55.5q0 -69 53 -119q-18 -32 -18 -69
t17.5 -73.5t47.5 -52.5q-4 -24 -4 -56q0 -85 48.5 -126t135.5 -41q84 0 183 32t194 64t167 32zM1664 192q0 26 -19 45t-45 19t-45 -19t-19 -45t19 -45t45 -19t45 19t19 45z" />
    <glyph glyph-name="hand_up" unicode="&#xf0a6;" 
d="M896 1280v-169q62 -4 119 -37q21 3 43 3q101 0 178 -60q139 1 219.5 -85t80.5 -227q0 -133 -69 -322q-59 -164 -59 -223v-288q0 -53 -37.5 -90.5t-90.5 -37.5h-640q-53 0 -90.5 37.5t-37.5 90.5v288q0 10 -4.5 21.5t-14 23.5t-18 22.5t-22.5 24t-21.5 20.5t-21.5 19
t-17 14q-74 65 -129 100q-21 13 -62 33t-72 37t-63 40.5t-49.5 55t-17.5 69.5q0 125 67 206.5t189 81.5q68 0 128 -22v374q0 104 76 180t179 76q105 0 181 -75.5t76 -180.5zM1280 128v32q0 72 32 167t64 193.5t32 179.5q0 189 -167 189q-26 0 -56 -5q-16 30 -52.5 47.5
t-73.5 17.5t-69 -18q-50 53 -119 53q-25 0 -55.5 -10t-47.5 -25v331q0 52 -38 90t-90 38q-51 0 -89.5 -39t-38.5 -89v-576q-20 0 -48.5 15t-55 33t-68 33t-84.5 15q-67 0 -97.5 -44.5t-30.5 -115.5q0 -24 139 -90q44 -24 65 -37q64 -40 145 -112q81 -71 106 -101
q57 -69 57 -140v-32h640zM1280 -64q0 26 -19 45t-45 19t-45 -19t-19 -45t19 -45t45 -19t45 19t19 45z" />
    <glyph glyph-name="hand_down" unicode="&#xf0a7;" 
d="M1408 1408v-288q0 -59 59 -223q69 -190 69 -317q0 -142 -77.5 -230t-217.5 -87l-5 1q-76 -61 -178 -61q-22 0 -43 3q-54 -30 -119 -37v-169q0 -105 -76 -180.5t-181 -75.5q-103 0 -179 76t-76 180v374q-54 -22 -128 -22q-121 0 -188.5 81.5t-67.5 206.5q0 38 17.5 69.5
t49.5 55t63 40.5t72 37t62 33q55 35 129 100q3 2 17 14t21.5 19t21.5 20.5t22.5 24t18 22.5t14 23.5t4.5 21.5v288q0 53 37.5 90.5t90.5 37.5h640q53 0 90.5 -37.5t37.5 -90.5zM1280 1344q0 26 -19 45t-45 19t-45 -19t-19 -45t19 -45t45 -19t45 19t19 45zM768 0v331
q46 -35 103 -35q69 0 119 53q32 -18 69 -18t73.5 17.5t52.5 47.5q24 -4 56 -4q85 0 126 48.5t41 135.5q0 84 -32 183t-64 194t-32 167v32h-640v-32q0 -35 -12 -67.5t-37 -62.5t-46 -50t-54 -49q-9 -8 -14 -12q-81 -72 -145 -112q-22 -14 -68 -38q-3 -1 -22.5 -10.5
t-36 -18.5t-35.5 -20t-30.5 -21.5t-11.5 -18.5q0 -71 30.5 -115.5t97.5 -44.5q43 0 84.5 15t68 33t55 33t48.5 15v-576q0 -50 38.5 -89t89.5 -39q52 0 90 38t38 90z" />
    <glyph glyph-name="circle_arrow_left" unicode="&#xf0a8;" 
d="M768 1408q209 0 385.5 -103t279.5 -279.5t103 -385.5t-103 -385.5t-279.5 -279.5t-385.5 -103t-385.5 103t-279.5 279.5t-103 385.5t103 385.5t279.5 279.5t385.5 103zM917 175l62 62q13 13 13 31t-13 31l-340 340l340 340q13 13 13 31t-13 31l-62 62q-13 13 -31 13
t-31 -13l-433 -433q-24 -26 -5 -55q2 -4 5 -7l433 -433q13 -13 31 -13t31 13z" />
    <glyph glyph-name="circle_arrow_right" unicode="&#xf0a9;" 
d="M768 1408q209 0 385.5 -103t279.5 -279.5t103 -385.5t-103 -385.5t-279.5 -279.5t-385.5 -103t-385.5 103t-279.5 279.5t-103 385.5t103 385.5t279.5 279.5t385.5 103zM680 176l433 433q4 4 6 7q19 30 -6 55l-433 433q-13 13 -31 13t-31 -13l-62 -62q-13 -13 -13 -31
t13 -31l341 -340l-341 -340q-13 -13 -13 -31t13 -31l62 -62q13 -13 31 -13t31 13z" />
    <glyph glyph-name="circle_arrow_up" unicode="&#xf0aa;" 
d="M768 1408q209 0 385.5 -103t279.5 -279.5t103 -385.5t-103 -385.5t-279.5 -279.5t-385.5 -103t-385.5 103t-279.5 279.5t-103 385.5t103 385.5t279.5 279.5t385.5 103zM1170 429l62 62q13 13 13 30.5t-13 30.5l-433 433q-1 1 -3.5 3t-3.5 3q-30 19 -55 -6l-433 -433
q-13 -13 -13 -30.5t13 -30.5l62 -62q13 -13 31 -13t31 13l340 340l340 -340q13 -13 31 -13t31 13z" />
    <glyph glyph-name="circle_arrow_down" unicode="&#xf0ab;" 
d="M768 1408q209 0 385.5 -103t279.5 -279.5t103 -385.5t-103 -385.5t-279.5 -279.5t-385.5 -103t-385.5 103t-279.5 279.5t-103 385.5t103 385.5t279.5 279.5t385.5 103zM799 295l433 433q13 13 13 31t-13 31l-62 62q-13 13 -31 13t-31 -13l-340 -341l-340 341
q-13 13 -31 13t-31 -13l-62 -62q-13 -13 -13 -31t13 -31l433 -433q25 -25 55 -6q3 2 7 6z" />
    </font>
</defs>
</svg>
